  0
SECTION
  2
HEADER
  9
$ACADVER
  1
AC1009
  9
$EXTMIN
 10
0.0
 20
0.0
 30
0.0
  9
$EXTMAX
 10
1000.0
 20
1000.0
 30
0.0
  9
$FILLMODE
 70
 0
  9
$SPLFRAME
 70
 1
  0
ENDSEC
  0
SECTION
  2
TABLES
  0
TABLE
  2
LAYER
 70
1
  0
LAYER
  2
0
 70
     0
 62
     7
  6
CONTINUOUS
  0
ENDTAB
  0
ENDSEC
  0
SECTION
  2
ENTITIES
  0
LINE
  8
0
 62
     0
 10
339.708
 20
108.56
 30
0.0
 11
339.865
 21
108.554
 31
0.0
  0
LINE
  8
0
 62
     0
 10
339.865
 20
108.554
 30
0.0
 11
340.021
 21
108.536
 31
0.0
  0
LINE
  8
0
 62
     0
 10
340.021
 20
108.536
 30
0.0
 11
340.175
 21
108.505
 31
0.0
  0
LINE
  8
0
 62
     0
 10
340.175
 20
108.505
 30
0.0
 11
340.326
 21
108.463
 31
0.0
  0
LINE
  8
0
 62
     0
 10
340.326
 20
108.463
 30
0.0
 11
340.473
 21
108.408
 31
0.0
  0
LINE
  8
0
 62
     0
 10
340.473
 20
108.408
 30
0.0
 11
340.616
 21
108.343
 31
0.0
  0
LINE
  8
0
 62
     0
 10
340.616
 20
108.343
 30
0.0
 11
340.753
 21
108.266
 31
0.0
  0
LINE
  8
0
 62
     0
 10
340.753
 20
108.266
 30
0.0
 11
340.884
 21
108.179
 31
0.0
  0
LINE
  8
0
 62
     0
 10
340.884
 20
108.179
 30
0.0
 11
341.008
 21
108.081
 31
0.0
  0
LINE
  8
0
 62
     0
 10
341.008
 20
108.081
 30
0.0
 11
341.122
 21
107.975
 31
0.0
  0
LINE
  8
0
 62
     0
 10
341.122
 20
107.975
 30
0.0
 11
341.23
 21
107.859
 31
0.0
  0
LINE
  8
0
 62
     0
 10
341.23
 20
107.859
 30
0.0
 11
341.326
 21
107.737
 31
0.0
  0
LINE
  8
0
 62
     0
 10
341.326
 20
107.737
 30
0.0
 11
341.413
 21
107.605
 31
0.0
  0
LINE
  8
0
 62
     0
 10
341.413
 20
107.605
 30
0.0
 11
341.49
 21
107.468
 31
0.0
  0
LINE
  8
0
 62
     0
 10
341.49
 20
107.468
 30
0.0
 11
341.556
 21
107.326
 31
0.0
  0
LINE
  8
0
 62
     0
 10
341.556
 20
107.326
 30
0.0
 11
341.61
 21
107.18
 31
0.0
  0
LINE
  8
0
 62
     0
 10
341.61
 20
107.18
 30
0.0
 11
341.653
 21
107.027
 31
0.0
  0
LINE
  8
0
 62
     0
 10
341.653
 20
107.027
 30
0.0
 11
341.683
 21
106.874
 31
0.0
  0
LINE
  8
0
 62
     0
 10
341.683
 20
106.874
 30
0.0
 11
341.702
 21
106.717
 31
0.0
  0
LINE
  8
0
 62
     0
 10
341.702
 20
106.717
 30
0.0
 11
341.708
 21
106.56
 31
0.0
  0
LINE
  8
0
 62
     0
 10
341.708
 20
106.56
 30
0.0
 11
341.708
 21
2.30959
 31
0.0
  0
LINE
  8
0
 62
     0
 10
341.708
 20
2.30959
 30
0.0
 11
341.702
 21
2.15249
 31
0.0
  0
LINE
  8
0
 62
     0
 10
341.702
 20
2.15249
 30
0.0
 11
341.683
 21
1.99678
 31
0.0
  0
LINE
  8
0
 62
     0
 10
341.683
 20
1.99678
 30
0.0
 11
341.653
 21
1.84244
 31
0.0
  0
LINE
  8
0
 62
     0
 10
341.653
 20
1.84244
 30
0.0
 11
341.61
 21
1.69085
 31
0.0
  0
LINE
  8
0
 62
     0
 10
341.61
 20
1.69085
 30
0.0
 11
341.556
 21
1.5434
 31
0.0
  0
LINE
  8
0
 62
     0
 10
341.556
 20
1.5434
 30
0.0
 11
341.49
 21
1.40147
 31
0.0
  0
LINE
  8
0
 62
     0
 10
341.49
 20
1.40147
 30
0.0
 11
341.413
 21
1.26504
 31
0.0
  0
LINE
  8
0
 62
     0
 10
341.413
 20
1.26504
 30
0.0
 11
341.326
 21
1.13412
 31
0.0
  0
LINE
  8
0
 62
     0
 10
341.326
 20
1.13412
 30
0.0
 11
341.23
 21
1.01148
 31
0.0
  0
LINE
  8
0
 62
     0
 10
341.23
 20
1.01148
 30
0.0
 11
341.122
 21
0.895724
 31
0.0
  0
LINE
  8
0
 62
     0
 10
341.122
 20
0.895724
 30
0.0
 11
341.008
 21
0.789615
 31
0.0
  0
LINE
  8
0
 62
     0
 10
341.008
 20
0.789615
 30
0.0
 11
340.884
 21
0.690397
 31
0.0
  0
LINE
  8
0
 62
     0
 10
340.884
 20
0.690397
 30
0.0
 11
340.753
 21
0.603582
 31
0.0
  0
LINE
  8
0
 62
     0
 10
340.753
 20
0.603582
 30
0.0
 11
340.616
 21
0.526411
 31
0.0
  0
LINE
  8
0
 62
     0
 10
340.616
 20
0.526411
 30
0.0
 11
340.473
 21
0.461641
 31
0.0
  0
LINE
  8
0
 62
     0
 10
340.473
 20
0.461641
 30
0.0
 11
340.326
 21
0.40652
 31
0.0
  0
LINE
  8
0
 62
     0
 10
340.326
 20
0.40652
 30
0.0
 11
340.175
 21
0.365181
 31
0.0
  0
LINE
  8
0
 62
     0
 10
340.175
 20
0.365181
 30
0.0
 11
340.021
 21
0.333485
 31
0.0
  0
LINE
  8
0
 62
     0
 10
340.021
 20
0.333485
 30
0.0
 11
339.865
 21
0.315571
 31
0.0
  0
LINE
  8
0
 62
     0
 10
339.865
 20
0.315571
 30
0.0
 11
339.708
 21
0.310059
 31
0.0
  0
LINE
  8
0
 62
     0
 10
339.708
 20
0.310059
 30
0.0
 11
2.096
 21
0.310059
 31
0.0
  0
LINE
  8
0
 62
     0
 10
2.096
 20
0.310059
 30
0.0
 11
1.9389
 21
0.315571
 31
0.0
  0
LINE
  8
0
 62
     0
 10
1.9389
 20
0.315571
 30
0.0
 11
1.7818
 21
0.333485
 31
0.0
  0
LINE
  8
0
 62
     0
 10
1.7818
 20
0.333485
 30
0.0
 11
1.62884
 21
0.365181
 31
0.0
  0
LINE
  8
0
 62
     0
 10
1.62884
 20
0.365181
 30
0.0
 11
1.47588
 21
0.40652
 31
0.0
  0
LINE
  8
0
 62
     0
 10
1.47588
 20
0.40652
 30
0.0
 11
1.32981
 21
0.461641
 31
0.0
  0
LINE
  8
0
 62
     0
 10
1.32981
 20
0.461641
 30
0.0
 11
1.18787
 21
0.526411
 31
0.0
  0
LINE
  8
0
 62
     0
 10
1.18787
 20
0.526411
 30
0.0
 11
1.05006
 21
0.603582
 31
0.0
  0
LINE
  8
0
 62
     0
 10
1.05006
 20
0.603582
 30
0.0
 11
0.919152
 21
0.690397
 31
0.0
  0
LINE
  8
0
 62
     0
 10
0.919152
 20
0.690397
 30
0.0
 11
0.796505
 21
0.789615
 31
0.0
  0
LINE
  8
0
 62
     0
 10
0.796505
 20
0.789615
 30
0.0
 11
0.680752
 21
0.895724
 31
0.0
  0
LINE
  8
0
 62
     0
 10
0.680752
 20
0.895724
 30
0.0
 11
0.574643
 21
1.01148
 31
0.0
  0
LINE
  8
0
 62
     0
 10
0.574643
 20
1.01148
 30
0.0
 11
0.4768
 21
1.13412
 31
0.0
  0
LINE
  8
0
 62
     0
 10
0.4768
 20
1.13412
 30
0.0
 11
0.389985
 21
1.26504
 31
0.0
  0
LINE
  8
0
 62
     0
 10
0.389985
 20
1.26504
 30
0.0
 11
0.312815
 21
1.40147
 31
0.0
  0
LINE
  8
0
 62
     0
 10
0.312815
 20
1.40147
 30
0.0
 11
0.248047
 21
1.5434
 31
0.0
  0
LINE
  8
0
 62
     0
 10
0.248047
 20
1.5434
 30
0.0
 11
0.192925
 21
1.69085
 31
0.0
  0
LINE
  8
0
 62
     0
 10
0.192925
 20
1.69085
 30
0.0
 11
0.150206
 21
1.84244
 31
0.0
  0
LINE
  8
0
 62
     0
 10
0.150206
 20
1.84244
 30
0.0
 11
0.119889
 21
1.99678
 31
0.0
  0
LINE
  8
0
 62
     0
 10
0.119889
 20
1.99678
 30
0.0
 11
0.101975
 21
2.15249
 31
0.0
  0
LINE
  8
0
 62
     0
 10
0.101975
 20
2.15249
 30
0.0
 11
0.0950846
 21
2.30959
 31
0.0
  0
LINE
  8
0
 62
     0
 10
0.0950846
 20
2.30959
 30
0.0
 11
0.0950846
 21
106.56
 31
0.0
  0
LINE
  8
0
 62
     0
 10
0.0950846
 20
106.56
 30
0.0
 11
0.101975
 21
106.717
 31
0.0
  0
LINE
  8
0
 62
     0
 10
0.101975
 20
106.717
 30
0.0
 11
0.119889
 21
106.874
 31
0.0
  0
LINE
  8
0
 62
     0
 10
0.119889
 20
106.874
 30
0.0
 11
0.150206
 21
107.027
 31
0.0
  0
LINE
  8
0
 62
     0
 10
0.150206
 20
107.027
 30
0.0
 11
0.192925
 21
107.18
 31
0.0
  0
LINE
  8
0
 62
     0
 10
0.192925
 20
107.18
 30
0.0
 11
0.248047
 21
107.326
 31
0.0
  0
LINE
  8
0
 62
     0
 10
0.248047
 20
107.326
 30
0.0
 11
0.312815
 21
107.468
 31
0.0
  0
LINE
  8
0
 62
     0
 10
0.312815
 20
107.468
 30
0.0
 11
0.389985
 21
107.605
 31
0.0
  0
LINE
  8
0
 62
     0
 10
0.389985
 20
107.605
 30
0.0
 11
0.4768
 21
107.737
 31
0.0
  0
LINE
  8
0
 62
     0
 10
0.4768
 20
107.737
 30
0.0
 11
0.574643
 21
107.859
 31
0.0
  0
LINE
  8
0
 62
     0
 10
0.574643
 20
107.859
 30
0.0
 11
0.680752
 21
107.975
 31
0.0
  0
LINE
  8
0
 62
     0
 10
0.680752
 20
107.975
 30
0.0
 11
0.796505
 21
108.081
 31
0.0
  0
LINE
  8
0
 62
     0
 10
0.796505
 20
108.081
 30
0.0
 11
0.919152
 21
108.179
 31
0.0
  0
LINE
  8
0
 62
     0
 10
0.919152
 20
108.179
 30
0.0
 11
1.05006
 21
108.266
 31
0.0
  0
LINE
  8
0
 62
     0
 10
1.05006
 20
108.266
 30
0.0
 11
1.18787
 21
108.343
 31
0.0
  0
LINE
  8
0
 62
     0
 10
1.18787
 20
108.343
 30
0.0
 11
1.32981
 21
108.408
 31
0.0
  0
LINE
  8
0
 62
     0
 10
1.32981
 20
108.408
 30
0.0
 11
1.47588
 21
108.463
 31
0.0
  0
LINE
  8
0
 62
     0
 10
1.47588
 20
108.463
 30
0.0
 11
1.62884
 21
108.505
 31
0.0
  0
LINE
  8
0
 62
     0
 10
1.62884
 20
108.505
 30
0.0
 11
1.7818
 21
108.536
 31
0.0
  0
LINE
  8
0
 62
     0
 10
1.7818
 20
108.536
 30
0.0
 11
1.9389
 21
108.554
 31
0.0
  0
LINE
  8
0
 62
     0
 10
1.9389
 20
108.554
 30
0.0
 11
2.096
 21
108.56
 31
0.0
  0
LINE
  8
0
 62
     0
 10
2.096
 20
108.56
 30
0.0
 11
339.708
 21
108.56
 31
0.0
  0
LINE
  8
0
 62
     0
 10
2.45842
 20
4.2485
 30
0.0
 11
2.11116
 21
4.07074
 31
0.0
  0
LINE
  8
0
 62
     0
 10
2.11116
 20
4.07074
 30
0.0
 11
1.83417
 21
3.79374
 31
0.0
  0
LINE
  8
0
 62
     0
 10
1.83417
 20
3.79374
 30
0.0
 11
1.6564
 21
3.44647
 31
0.0
  0
LINE
  8
0
 62
     0
 10
1.6564
 20
3.44647
 30
0.0
 11
1.59439
 21
3.05925
 31
0.0
  0
LINE
  8
0
 62
     0
 10
1.59439
 20
3.05925
 30
0.0
 11
1.6564
 21
2.6734
 31
0.0
  0
LINE
  8
0
 62
     0
 10
1.6564
 20
2.6734
 30
0.0
 11
1.83417
 21
2.32475
 31
0.0
  0
LINE
  8
0
 62
     0
 10
1.83417
 20
2.32475
 30
0.0
 11
2.11116
 21
2.04777
 31
0.0
  0
LINE
  8
0
 62
     0
 10
2.11116
 20
2.04777
 30
0.0
 11
2.45842
 21
1.87138
 31
0.0
  0
LINE
  8
0
 62
     0
 10
2.45842
 20
1.87138
 30
0.0
 11
2.84427
 21
1.80937
 31
0.0
  0
LINE
  8
0
 62
     0
 10
2.84427
 20
1.80937
 30
0.0
 11
3.23012
 21
1.87138
 31
0.0
  0
LINE
  8
0
 62
     0
 10
3.23012
 20
1.87138
 30
0.0
 11
3.58013
 21
2.04777
 31
0.0
  0
LINE
  8
0
 62
     0
 10
3.58013
 20
2.04777
 30
0.0
 11
3.85713
 21
2.32475
 31
0.0
  0
LINE
  8
0
 62
     0
 10
3.85713
 20
2.32475
 30
0.0
 11
4.03352
 21
2.6734
 31
0.0
  0
LINE
  8
0
 62
     0
 10
4.03352
 20
2.6734
 30
0.0
 11
4.09416
 21
3.05925
 31
0.0
  0
LINE
  8
0
 62
     0
 10
4.09416
 20
3.05925
 30
0.0
 11
4.03352
 21
3.44647
 31
0.0
  0
LINE
  8
0
 62
     0
 10
4.03352
 20
3.44647
 30
0.0
 11
3.85713
 21
3.79374
 31
0.0
  0
LINE
  8
0
 62
     0
 10
3.85713
 20
3.79374
 30
0.0
 11
3.58013
 21
4.07074
 31
0.0
  0
LINE
  8
0
 62
     0
 10
3.58013
 20
4.07074
 30
0.0
 11
3.23012
 21
4.2485
 31
0.0
  0
LINE
  8
0
 62
     0
 10
3.23012
 20
4.2485
 30
0.0
 11
2.84427
 21
4.31052
 31
0.0
  0
LINE
  8
0
 62
     0
 10
2.84427
 20
4.31052
 30
0.0
 11
2.45842
 21
4.2485
 31
0.0
  0
LINE
  8
0
 62
     0
 10
114.497
 20
4.2485
 30
0.0
 11
114.148
 21
4.07074
 31
0.0
  0
LINE
  8
0
 62
     0
 10
114.148
 20
4.07074
 30
0.0
 11
113.871
 21
3.79374
 31
0.0
  0
LINE
  8
0
 62
     0
 10
113.871
 20
3.79374
 30
0.0
 11
113.695
 21
3.44647
 31
0.0
  0
LINE
  8
0
 62
     0
 10
113.695
 20
3.44647
 30
0.0
 11
113.633
 21
3.05925
 31
0.0
  0
LINE
  8
0
 62
     0
 10
113.633
 20
3.05925
 30
0.0
 11
113.695
 21
2.6734
 31
0.0
  0
LINE
  8
0
 62
     0
 10
113.695
 20
2.6734
 30
0.0
 11
113.871
 21
2.32475
 31
0.0
  0
LINE
  8
0
 62
     0
 10
113.871
 20
2.32475
 30
0.0
 11
114.148
 21
2.04777
 31
0.0
  0
LINE
  8
0
 62
     0
 10
114.148
 20
2.04777
 30
0.0
 11
114.497
 21
1.87138
 31
0.0
  0
LINE
  8
0
 62
     0
 10
114.497
 20
1.87138
 30
0.0
 11
114.883
 21
1.80937
 31
0.0
  0
LINE
  8
0
 62
     0
 10
114.883
 20
1.80937
 30
0.0
 11
115.27
 21
1.87138
 31
0.0
  0
LINE
  8
0
 62
     0
 10
115.27
 20
1.87138
 30
0.0
 11
115.617
 21
2.04777
 31
0.0
  0
LINE
  8
0
 62
     0
 10
115.617
 20
2.04777
 30
0.0
 11
115.895
 21
2.32475
 31
0.0
  0
LINE
  8
0
 62
     0
 10
115.895
 20
2.32475
 30
0.0
 11
116.072
 21
2.6734
 31
0.0
  0
LINE
  8
0
 62
     0
 10
116.072
 20
2.6734
 30
0.0
 11
116.133
 21
3.05925
 31
0.0
  0
LINE
  8
0
 62
     0
 10
116.133
 20
3.05925
 30
0.0
 11
116.072
 21
3.44647
 31
0.0
  0
LINE
  8
0
 62
     0
 10
116.072
 20
3.44647
 30
0.0
 11
115.895
 21
3.79374
 31
0.0
  0
LINE
  8
0
 62
     0
 10
115.895
 20
3.79374
 30
0.0
 11
115.617
 21
4.07074
 31
0.0
  0
LINE
  8
0
 62
     0
 10
115.617
 20
4.07074
 30
0.0
 11
115.27
 21
4.2485
 31
0.0
  0
LINE
  8
0
 62
     0
 10
115.27
 20
4.2485
 30
0.0
 11
114.883
 21
4.31052
 31
0.0
  0
LINE
  8
0
 62
     0
 10
114.883
 20
4.31052
 30
0.0
 11
114.497
 21
4.2485
 31
0.0
  0
LINE
  8
0
 62
     0
 10
226.534
 20
4.2485
 30
0.0
 11
226.186
 21
4.07074
 31
0.0
  0
LINE
  8
0
 62
     0
 10
226.186
 20
4.07074
 30
0.0
 11
225.91
 21
3.79374
 31
0.0
  0
LINE
  8
0
 62
     0
 10
225.91
 20
3.79374
 30
0.0
 11
225.731
 21
3.44647
 31
0.0
  0
LINE
  8
0
 62
     0
 10
225.731
 20
3.44647
 30
0.0
 11
225.67
 21
3.05925
 31
0.0
  0
LINE
  8
0
 62
     0
 10
225.67
 20
3.05925
 30
0.0
 11
225.731
 21
2.6734
 31
0.0
  0
LINE
  8
0
 62
     0
 10
225.731
 20
2.6734
 30
0.0
 11
225.91
 21
2.32475
 31
0.0
  0
LINE
  8
0
 62
     0
 10
225.91
 20
2.32475
 30
0.0
 11
226.186
 21
2.04777
 31
0.0
  0
LINE
  8
0
 62
     0
 10
226.186
 20
2.04777
 30
0.0
 11
226.534
 21
1.87138
 31
0.0
  0
LINE
  8
0
 62
     0
 10
226.534
 20
1.87138
 30
0.0
 11
226.92
 21
1.80937
 31
0.0
  0
LINE
  8
0
 62
     0
 10
226.92
 20
1.80937
 30
0.0
 11
227.306
 21
1.87138
 31
0.0
  0
LINE
  8
0
 62
     0
 10
227.306
 20
1.87138
 30
0.0
 11
227.656
 21
2.04777
 31
0.0
  0
LINE
  8
0
 62
     0
 10
227.656
 20
2.04777
 30
0.0
 11
227.931
 21
2.32475
 31
0.0
  0
LINE
  8
0
 62
     0
 10
227.931
 20
2.32475
 30
0.0
 11
228.109
 21
2.6734
 31
0.0
  0
LINE
  8
0
 62
     0
 10
228.109
 20
2.6734
 30
0.0
 11
228.17
 21
3.05925
 31
0.0
  0
LINE
  8
0
 62
     0
 10
228.17
 20
3.05925
 30
0.0
 11
228.109
 21
3.44647
 31
0.0
  0
LINE
  8
0
 62
     0
 10
228.109
 20
3.44647
 30
0.0
 11
227.931
 21
3.79374
 31
0.0
  0
LINE
  8
0
 62
     0
 10
227.931
 20
3.79374
 30
0.0
 11
227.656
 21
4.07074
 31
0.0
  0
LINE
  8
0
 62
     0
 10
227.656
 20
4.07074
 30
0.0
 11
227.306
 21
4.2485
 31
0.0
  0
LINE
  8
0
 62
     0
 10
227.306
 20
4.2485
 30
0.0
 11
226.92
 21
4.31052
 31
0.0
  0
LINE
  8
0
 62
     0
 10
226.92
 20
4.31052
 30
0.0
 11
226.534
 21
4.2485
 31
0.0
  0
LINE
  8
0
 62
     0
 10
338.573
 20
4.2485
 30
0.0
 11
338.223
 21
4.07074
 31
0.0
  0
LINE
  8
0
 62
     0
 10
338.223
 20
4.07074
 30
0.0
 11
337.947
 21
3.79374
 31
0.0
  0
LINE
  8
0
 62
     0
 10
337.947
 20
3.79374
 30
0.0
 11
337.77
 21
3.44647
 31
0.0
  0
LINE
  8
0
 62
     0
 10
337.77
 20
3.44647
 30
0.0
 11
337.709
 21
3.05925
 31
0.0
  0
LINE
  8
0
 62
     0
 10
337.709
 20
3.05925
 30
0.0
 11
337.77
 21
2.6734
 31
0.0
  0
LINE
  8
0
 62
     0
 10
337.77
 20
2.6734
 30
0.0
 11
337.947
 21
2.32475
 31
0.0
  0
LINE
  8
0
 62
     0
 10
337.947
 20
2.32475
 30
0.0
 11
338.223
 21
2.04777
 31
0.0
  0
LINE
  8
0
 62
     0
 10
338.223
 20
2.04777
 30
0.0
 11
338.573
 21
1.87138
 31
0.0
  0
LINE
  8
0
 62
     0
 10
338.573
 20
1.87138
 30
0.0
 11
338.959
 21
1.80937
 31
0.0
  0
LINE
  8
0
 62
     0
 10
338.959
 20
1.80937
 30
0.0
 11
339.345
 21
1.87138
 31
0.0
  0
LINE
  8
0
 62
     0
 10
339.345
 20
1.87138
 30
0.0
 11
339.693
 21
2.04777
 31
0.0
  0
LINE
  8
0
 62
     0
 10
339.693
 20
2.04777
 30
0.0
 11
339.969
 21
2.32475
 31
0.0
  0
LINE
  8
0
 62
     0
 10
339.969
 20
2.32475
 30
0.0
 11
340.148
 21
2.6734
 31
0.0
  0
LINE
  8
0
 62
     0
 10
340.148
 20
2.6734
 30
0.0
 11
340.209
 21
3.05925
 31
0.0
  0
LINE
  8
0
 62
     0
 10
340.209
 20
3.05925
 30
0.0
 11
340.148
 21
3.44647
 31
0.0
  0
LINE
  8
0
 62
     0
 10
340.148
 20
3.44647
 30
0.0
 11
339.969
 21
3.79374
 31
0.0
  0
LINE
  8
0
 62
     0
 10
339.969
 20
3.79374
 30
0.0
 11
339.693
 21
4.07074
 31
0.0
  0
LINE
  8
0
 62
     0
 10
339.693
 20
4.07074
 30
0.0
 11
339.345
 21
4.2485
 31
0.0
  0
LINE
  8
0
 62
     0
 10
339.345
 20
4.2485
 30
0.0
 11
338.959
 21
4.31052
 31
0.0
  0
LINE
  8
0
 62
     0
 10
338.959
 20
4.31052
 30
0.0
 11
338.573
 21
4.2485
 31
0.0
  0
LINE
  8
0
 62
     0
 10
2.45842
 20
106.999
 30
0.0
 11
2.11116
 21
106.821
 31
0.0
  0
LINE
  8
0
 62
     0
 10
2.11116
 20
106.821
 30
0.0
 11
1.83417
 21
106.545
 31
0.0
  0
LINE
  8
0
 62
     0
 10
1.83417
 20
106.545
 30
0.0
 11
1.6564
 21
106.197
 31
0.0
  0
LINE
  8
0
 62
     0
 10
1.6564
 20
106.197
 30
0.0
 11
1.59439
 21
105.81
 31
0.0
  0
LINE
  8
0
 62
     0
 10
1.59439
 20
105.81
 30
0.0
 11
1.6564
 21
105.426
 31
0.0
  0
LINE
  8
0
 62
     0
 10
1.6564
 20
105.426
 30
0.0
 11
1.83417
 21
105.076
 31
0.0
  0
LINE
  8
0
 62
     0
 10
1.83417
 20
105.076
 30
0.0
 11
2.11116
 21
104.798
 31
0.0
  0
LINE
  8
0
 62
     0
 10
2.11116
 20
104.798
 30
0.0
 11
2.45842
 21
104.622
 31
0.0
  0
LINE
  8
0
 62
     0
 10
2.45842
 20
104.622
 30
0.0
 11
2.84427
 21
104.56
 31
0.0
  0
LINE
  8
0
 62
     0
 10
2.84427
 20
104.56
 30
0.0
 11
3.23012
 21
104.622
 31
0.0
  0
LINE
  8
0
 62
     0
 10
3.23012
 20
104.622
 30
0.0
 11
3.58013
 21
104.798
 31
0.0
  0
LINE
  8
0
 62
     0
 10
3.58013
 20
104.798
 30
0.0
 11
3.85713
 21
105.076
 31
0.0
  0
LINE
  8
0
 62
     0
 10
3.85713
 20
105.076
 30
0.0
 11
4.03352
 21
105.426
 31
0.0
  0
LINE
  8
0
 62
     0
 10
4.03352
 20
105.426
 30
0.0
 11
4.09416
 21
105.81
 31
0.0
  0
LINE
  8
0
 62
     0
 10
4.09416
 20
105.81
 30
0.0
 11
4.03352
 21
106.197
 31
0.0
  0
LINE
  8
0
 62
     0
 10
4.03352
 20
106.197
 30
0.0
 11
3.85713
 21
106.545
 31
0.0
  0
LINE
  8
0
 62
     0
 10
3.85713
 20
106.545
 30
0.0
 11
3.58013
 21
106.821
 31
0.0
  0
LINE
  8
0
 62
     0
 10
3.58013
 20
106.821
 30
0.0
 11
3.23012
 21
106.999
 31
0.0
  0
LINE
  8
0
 62
     0
 10
3.23012
 20
106.999
 30
0.0
 11
2.84427
 21
107.06
 31
0.0
  0
LINE
  8
0
 62
     0
 10
2.84427
 20
107.06
 30
0.0
 11
2.45842
 21
106.999
 31
0.0
  0
LINE
  8
0
 62
     0
 10
338.573
 20
106.999
 30
0.0
 11
338.223
 21
106.821
 31
0.0
  0
LINE
  8
0
 62
     0
 10
338.223
 20
106.821
 30
0.0
 11
337.947
 21
106.545
 31
0.0
  0
LINE
  8
0
 62
     0
 10
337.947
 20
106.545
 30
0.0
 11
337.77
 21
106.197
 31
0.0
  0
LINE
  8
0
 62
     0
 10
337.77
 20
106.197
 30
0.0
 11
337.709
 21
105.81
 31
0.0
  0
LINE
  8
0
 62
     0
 10
337.709
 20
105.81
 30
0.0
 11
337.77
 21
105.426
 31
0.0
  0
LINE
  8
0
 62
     0
 10
337.77
 20
105.426
 30
0.0
 11
337.947
 21
105.076
 31
0.0
  0
LINE
  8
0
 62
     0
 10
337.947
 20
105.076
 30
0.0
 11
338.223
 21
104.798
 31
0.0
  0
LINE
  8
0
 62
     0
 10
338.223
 20
104.798
 30
0.0
 11
338.573
 21
104.622
 31
0.0
  0
LINE
  8
0
 62
     0
 10
338.573
 20
104.622
 30
0.0
 11
338.959
 21
104.56
 31
0.0
  0
LINE
  8
0
 62
     0
 10
338.959
 20
104.56
 30
0.0
 11
339.345
 21
104.622
 31
0.0
  0
LINE
  8
0
 62
     0
 10
339.345
 20
104.622
 30
0.0
 11
339.693
 21
104.798
 31
0.0
  0
LINE
  8
0
 62
     0
 10
339.693
 20
104.798
 30
0.0
 11
339.969
 21
105.076
 31
0.0
  0
LINE
  8
0
 62
     0
 10
339.969
 20
105.076
 30
0.0
 11
340.148
 21
105.426
 31
0.0
  0
LINE
  8
0
 62
     0
 10
340.148
 20
105.426
 30
0.0
 11
340.209
 21
105.81
 31
0.0
  0
LINE
  8
0
 62
     0
 10
340.209
 20
105.81
 30
0.0
 11
340.148
 21
106.197
 31
0.0
  0
LINE
  8
0
 62
     0
 10
340.148
 20
106.197
 30
0.0
 11
339.969
 21
106.545
 31
0.0
  0
LINE
  8
0
 62
     0
 10
339.969
 20
106.545
 30
0.0
 11
339.693
 21
106.821
 31
0.0
  0
LINE
  8
0
 62
     0
 10
339.693
 20
106.821
 30
0.0
 11
339.345
 21
106.999
 31
0.0
  0
LINE
  8
0
 62
     0
 10
339.345
 20
106.999
 30
0.0
 11
338.959
 21
107.06
 31
0.0
  0
LINE
  8
0
 62
     0
 10
338.959
 20
107.06
 30
0.0
 11
338.573
 21
106.999
 31
0.0
  0
LINE
  8
0
 62
     0
 10
226.534
 20
106.999
 30
0.0
 11
226.186
 21
106.821
 31
0.0
  0
LINE
  8
0
 62
     0
 10
226.186
 20
106.821
 30
0.0
 11
225.91
 21
106.545
 31
0.0
  0
LINE
  8
0
 62
     0
 10
225.91
 20
106.545
 30
0.0
 11
225.731
 21
106.197
 31
0.0
  0
LINE
  8
0
 62
     0
 10
225.731
 20
106.197
 30
0.0
 11
225.67
 21
105.81
 31
0.0
  0
LINE
  8
0
 62
     0
 10
225.67
 20
105.81
 30
0.0
 11
225.731
 21
105.426
 31
0.0
  0
LINE
  8
0
 62
     0
 10
225.731
 20
105.426
 30
0.0
 11
225.91
 21
105.076
 31
0.0
  0
LINE
  8
0
 62
     0
 10
225.91
 20
105.076
 30
0.0
 11
226.186
 21
104.798
 31
0.0
  0
LINE
  8
0
 62
     0
 10
226.186
 20
104.798
 30
0.0
 11
226.534
 21
104.622
 31
0.0
  0
LINE
  8
0
 62
     0
 10
226.534
 20
104.622
 30
0.0
 11
226.92
 21
104.56
 31
0.0
  0
LINE
  8
0
 62
     0
 10
226.92
 20
104.56
 30
0.0
 11
227.306
 21
104.622
 31
0.0
  0
LINE
  8
0
 62
     0
 10
227.306
 20
104.622
 30
0.0
 11
227.656
 21
104.798
 31
0.0
  0
LINE
  8
0
 62
     0
 10
227.656
 20
104.798
 30
0.0
 11
227.931
 21
105.076
 31
0.0
  0
LINE
  8
0
 62
     0
 10
227.931
 20
105.076
 30
0.0
 11
228.109
 21
105.426
 31
0.0
  0
LINE
  8
0
 62
     0
 10
228.109
 20
105.426
 30
0.0
 11
228.17
 21
105.81
 31
0.0
  0
LINE
  8
0
 62
     0
 10
228.17
 20
105.81
 30
0.0
 11
228.109
 21
106.197
 31
0.0
  0
LINE
  8
0
 62
     0
 10
228.109
 20
106.197
 30
0.0
 11
227.931
 21
106.545
 31
0.0
  0
LINE
  8
0
 62
     0
 10
227.931
 20
106.545
 30
0.0
 11
227.656
 21
106.821
 31
0.0
  0
LINE
  8
0
 62
     0
 10
227.656
 20
106.821
 30
0.0
 11
227.306
 21
106.999
 31
0.0
  0
LINE
  8
0
 62
     0
 10
227.306
 20
106.999
 30
0.0
 11
226.92
 21
107.06
 31
0.0
  0
LINE
  8
0
 62
     0
 10
226.92
 20
107.06
 30
0.0
 11
226.534
 21
106.999
 31
0.0
  0
LINE
  8
0
 62
     0
 10
114.497
 20
106.999
 30
0.0
 11
114.148
 21
106.821
 31
0.0
  0
LINE
  8
0
 62
     0
 10
114.148
 20
106.821
 30
0.0
 11
113.871
 21
106.545
 31
0.0
  0
LINE
  8
0
 62
     0
 10
113.871
 20
106.545
 30
0.0
 11
113.695
 21
106.197
 31
0.0
  0
LINE
  8
0
 62
     0
 10
113.695
 20
106.197
 30
0.0
 11
113.633
 21
105.81
 31
0.0
  0
LINE
  8
0
 62
     0
 10
113.633
 20
105.81
 30
0.0
 11
113.695
 21
105.426
 31
0.0
  0
LINE
  8
0
 62
     0
 10
113.695
 20
105.426
 30
0.0
 11
113.871
 21
105.076
 31
0.0
  0
LINE
  8
0
 62
     0
 10
113.871
 20
105.076
 30
0.0
 11
114.148
 21
104.798
 31
0.0
  0
LINE
  8
0
 62
     0
 10
114.148
 20
104.798
 30
0.0
 11
114.497
 21
104.622
 31
0.0
  0
LINE
  8
0
 62
     0
 10
114.497
 20
104.622
 30
0.0
 11
114.883
 21
104.56
 31
0.0
  0
LINE
  8
0
 62
     0
 10
114.883
 20
104.56
 30
0.0
 11
115.27
 21
104.622
 31
0.0
  0
LINE
  8
0
 62
     0
 10
115.27
 20
104.622
 30
0.0
 11
115.617
 21
104.798
 31
0.0
  0
LINE
  8
0
 62
     0
 10
115.617
 20
104.798
 30
0.0
 11
115.895
 21
105.076
 31
0.0
  0
LINE
  8
0
 62
     0
 10
115.895
 20
105.076
 30
0.0
 11
116.072
 21
105.426
 31
0.0
  0
LINE
  8
0
 62
     0
 10
116.072
 20
105.426
 30
0.0
 11
116.133
 21
105.81
 31
0.0
  0
LINE
  8
0
 62
     0
 10
116.133
 20
105.81
 30
0.0
 11
116.072
 21
106.197
 31
0.0
  0
LINE
  8
0
 62
     0
 10
116.072
 20
106.197
 30
0.0
 11
115.895
 21
106.545
 31
0.0
  0
LINE
  8
0
 62
     0
 10
115.895
 20
106.545
 30
0.0
 11
115.617
 21
106.821
 31
0.0
  0
LINE
  8
0
 62
     0
 10
115.617
 20
106.821
 30
0.0
 11
115.27
 21
106.999
 31
0.0
  0
LINE
  8
0
 62
     0
 10
115.27
 20
106.999
 30
0.0
 11
114.883
 21
107.06
 31
0.0
  0
LINE
  8
0
 62
     0
 10
114.883
 20
107.06
 30
0.0
 11
114.497
 21
106.999
 31
0.0
  0
ENDSEC
  0
EOF
