M48
; DRILL file {KiCad (5.1.12)-1} date 11/30/21 17:05:56
; FORMAT={-:-/ absolute / inch / decimal}
; #@! TF.CreationDate,2021-11-30T17:05:56-08:00
; #@! TF.GenerationSoftware,Kicad,Pcbnew,(5.1.12)-1
; #@! TF.FileFunction,NonPlated,1,2,NPTH
FMAT,2
INCH
T1C0.0256
T2C0.0669
T3C0.1201
T4C0.1260
T5C0.1575
%
G90
G05
T1
X-5.8836Y-1.3274
X-5.656Y-1.3274
T2
X-6.3198Y-1.6663
X-6.2273Y-4.6663
X-6.132Y-2.4163
X-6.0398Y-3.1663
X-5.9198Y-1.6663
X-5.8523Y-3.9163
X-5.8273Y-4.6663
X-5.732Y-2.4163
X-5.6398Y-3.1663
X-5.5698Y-1.6663
X-5.4523Y-3.9163
X-5.2898Y-4.6663
X-5.1948Y-2.4163
X-5.1698Y-1.6663
X-5.0098Y-3.1663
X-4.8898Y-4.6663
X-4.8198Y-1.6663
X-4.7948Y-2.4163
X-4.6348Y-3.9163
X-4.6098Y-3.1663
X-4.4448Y-2.4163
X-4.4198Y-1.6663
X-4.3523Y-4.6663
X-4.2598Y-3.1663
X-4.2348Y-3.9163
X-4.0698Y-1.6663
X-4.0448Y-2.4163
X-3.9523Y-4.6663
X-3.8848Y-3.9163
X-3.8598Y-3.1663
X-3.6948Y-2.4163
X-3.6698Y-1.6663
X-3.5098Y-3.1663
X-3.4848Y-3.9163
X-3.3198Y-1.6663
X-3.2948Y-2.4163
X-3.1348Y-3.9163
X-3.1098Y-3.1663
X-2.9448Y-2.4163
X-2.9198Y-1.6663
X-2.7598Y-3.1663
X-2.7348Y-3.9163
X-2.5698Y-1.6663
X-2.5448Y-2.4163
X-2.3848Y-3.9163
X-2.3598Y-3.1663
X-2.1948Y-2.4163
X-2.1698Y-1.6663
X-2.0098Y-3.1663
X-1.9848Y-3.9163
X-1.8198Y-1.6663
X-1.7948Y-2.4163
X-1.6348Y-3.9163
X-1.6098Y-3.1663
X-1.5383Y-4.6669
X-1.4448Y-2.4163
X-1.4198Y-1.6663
X-1.2598Y-3.1663
X-1.2348Y-3.9163
X-1.1383Y-4.6669
X-1.0698Y-1.6663
X-1.0448Y-2.4163
X-0.8848Y-3.9163
X-0.8598Y-3.1663
X-0.6948Y-2.4163
X-0.6698Y-1.6663
X-0.5098Y-3.1663
X-0.4848Y-3.9163
X-0.3198Y-1.6663
X-0.2948Y-2.4163
X-0.1348Y-3.9163
X-0.1098Y-3.1663
X0.0552Y-2.4163
X0.0802Y-1.6663
X0.2402Y-3.1663
X0.2652Y-3.9163
X0.4302Y-1.6663
X0.4552Y-2.4163
X0.6152Y-3.9163
X0.6402Y-3.1663
X0.8052Y-2.4163
X0.8302Y-1.6663
X0.9902Y-3.1663
X1.0152Y-3.9163
X1.1802Y-1.6663
X1.2052Y-2.4163
X1.2727Y-4.6663
X1.3652Y-3.9163
X1.3902Y-3.1663
X1.5552Y-2.4163
X1.5802Y-1.6663
X1.6727Y-4.6663
X1.7402Y-3.1663
X1.7652Y-3.9163
X1.9302Y-1.6663
X1.9552Y-2.4163
X2.1152Y-3.9163
X2.1402Y-3.1663
X2.2102Y-4.6663
X2.3052Y-2.4163
X2.3302Y-1.6663
X2.4902Y-3.1663
X2.5152Y-3.9163
X2.6102Y-4.6663
X2.6802Y-1.6663
X2.7052Y-2.4163
X2.8902Y-3.1663
X3.0552Y-2.4163
X3.0802Y-1.6663
X3.1477Y-4.6663
X3.4552Y-2.4163
X3.5252Y-3.9163
X3.5477Y-4.6663
X3.7127Y-3.1663
X3.8052Y-1.6663
X3.9252Y-3.9163
X4.1127Y-3.1663
X4.2052Y-1.6663
X4.3702Y-4.6663
X4.7702Y-4.6663
X5.1202Y-1.6663
X5.1202Y-2.4163
X5.1202Y-3.9163
X5.1202Y-4.6663
X5.5202Y-1.6663
X5.5202Y-2.4163
X5.5202Y-3.9163
X5.5202Y-4.6663
X5.8702Y-1.6663
X5.8702Y-2.4163
X5.8702Y-4.6663
X6.2702Y-1.6663
X6.2702Y-2.4163
X6.2702Y-4.6663
T3
X-6.1208Y-3.6407
X-5.1838Y-3.6407
X-3.3068Y-4.3913
X0.6302Y-4.3913
X3.2567Y-3.6407
X3.4442Y-2.8907
X3.5367Y-1.3907
X4.1937Y-3.6407
X4.3812Y-2.8907
X4.4737Y-1.3907
T4
X6.178Y-3.175
T5
X-6.1208Y-4.2407
X-6.1198Y-1.6663
X-6.0273Y-4.6663
X-5.932Y-2.4163
X-5.8398Y-3.1663
X-5.6523Y-3.9163
X-5.3698Y-1.6663
X-5.1838Y-4.2407
X-5.0898Y-4.6663
X-4.9948Y-2.4163
X-4.8098Y-3.1663
X-4.6198Y-1.6663
X-4.4348Y-3.9163
X-4.2448Y-2.4163
X-4.1523Y-4.6663
X-4.0598Y-3.1663
X-3.8698Y-1.6663
X-3.6848Y-3.9163
X-3.4948Y-2.4163
X-3.3098Y-3.1663
X-3.3068Y-4.9913
X-3.1198Y-1.6663
X-2.9348Y-3.9163
X-2.7448Y-2.4163
X-2.5598Y-3.1663
X-2.3698Y-1.6663
X-2.1848Y-3.9163
X-1.9948Y-2.4163
X-1.8098Y-3.1663
X-1.6198Y-1.6663
X-1.4348Y-3.9163
X-1.3383Y-4.6669
X-1.2448Y-2.4163
X-1.0598Y-3.1663
X-0.8698Y-1.6663
X-0.6848Y-3.9163
X-0.4948Y-2.4163
X-0.3098Y-3.1663
X-0.1198Y-1.6663
X0.0652Y-3.9163
X0.2552Y-2.4163
X0.4402Y-3.1663
X0.6302Y-1.6663
X0.6302Y-4.9913
X0.8152Y-3.9163
X1.0052Y-2.4163
X1.1902Y-3.1663
X1.3802Y-1.6663
X1.4727Y-4.6663
X1.5652Y-3.9163
X1.7552Y-2.4163
X1.9402Y-3.1663
X2.1302Y-1.6663
X2.3152Y-3.9163
X2.4102Y-4.6663
X2.5052Y-2.4163
X2.6902Y-3.1663
X2.8802Y-1.6663
X3.2552Y-2.4163
X3.2567Y-4.2407
X3.3477Y-4.6663
X3.4442Y-3.4907
X3.5367Y-1.9907
X3.7252Y-3.9163
X3.9127Y-3.1663
X4.0052Y-1.6663
X4.1927Y-2.4163
X4.1937Y-4.2407
X4.3812Y-3.4907
X4.4737Y-1.9907
X4.5702Y-4.6663
X5.3202Y-1.6663
X5.3202Y-2.4163
X5.3202Y-3.9163
X5.3202Y-4.6663
X6.0702Y-1.6663
X6.0702Y-2.4163
X6.0702Y-4.6663
T0
M30
