M48
; DRILL file {KiCad (5.1.12)-1} date 11/30/21 17:05:56
; FORMAT={-:-/ absolute / inch / decimal}
; #@! TF.CreationDate,2021-11-30T17:05:56-08:00
; #@! TF.GenerationSoftware,Kicad,Pcbnew,(5.1.12)-1
; #@! TF.FileFunction,Plated,1,2,PTH
FMAT,2
INCH
T1C0.0157
T2C0.0236
T3C0.0394
T4C0.0591
T5C0.0866
%
G90
G05
T1
X-6.3845Y-3.135
X-6.3745Y-4.9
X-6.3645Y-1.4175
X-6.212Y-1.3725
X-5.8582Y-1.4912
X-5.6745Y-1.4925
X-5.497Y-2.6625
X-5.462Y-3.41
X-5.3995Y-2.105
X-5.397Y-1.83
X-5.302Y-2.105
X-5.237Y-2.6625
X-5.1895Y-3.41
X-5.162Y-3.9925
X-4.7795Y-3.9925
X-4.452Y-2.605
X-4.427Y-2.4775
X-4.352Y-2.53
X-4.352Y-2.7025
X-4.142Y-2.7325
X-4.142Y-2.96
X-3.677Y-2.755
X-3.677Y-2.855
X-3.602Y-2.755
X-3.602Y-2.855
X-3.152Y-2.755
X-3.127Y-2.855
X-3.1245Y-2.7225
X-3.027Y-2.73
X-3.027Y-2.855
X-2.927Y-2.755
X-2.927Y-2.855
X-2.852Y-2.755
X-2.852Y-2.855
X-2.557Y-4.36
X-2.497Y-1.4125
X-2.2695Y-2.075
X-2.177Y-2.7525
X-2.1745Y-2.855
X-2.102Y-2.755
X-2.102Y-2.855
X-1.954Y-2.73
X-1.9322Y-2.855
X-1.852Y-2.73
X-1.852Y-2.855
X-1.5833Y-3.4112
X-1.207Y-3.41
X-1.002Y-4.43
X-0.952Y-4.48
X-0.902Y-4.525
X-0.877Y-3.58
X-0.877Y-3.6825
X-0.852Y-4.58
X-0.837Y-4.715
X-0.837Y-3.5425
X-0.8345Y-3.705
X-0.802Y-3.58
X-0.777Y-3.68
X-0.677Y-4.865
X-0.6264Y-4.4231
X-0.6264Y-4.4231
X-0.4971Y-4.2212
X-0.4958Y-4.1574
X-0.4501Y-4.4231
X-0.3485Y-4.94
X-0.307Y-4.955
X-0.267Y-4.97
X-0.227Y-4.985
X-0.1878Y-4.999
X-0.142Y-4.31
X-0.092Y-4.945
X0.013Y-4.34
X0.033Y-4.235
X0.0554Y-4.1574
X0.088Y-4.235
X0.133Y-4.235
X0.143Y-4.34
X0.183Y-4.235
X0.2055Y-1.4225
X0.263Y-4.5925
X0.3527Y-4.8663
X0.3528Y-4.9056
X0.353Y-4.945
X0.378Y-4.015
X0.378Y-4.1275
X0.378Y-4.0725
X0.428Y-4.015
X0.6505Y-4.725
X0.6543Y-4.5863
X1.2955Y-4.245
X1.2955Y-4.2975
X1.2955Y-4.39
X1.4805Y-4.851
X2.4305Y-1.4
X2.6155Y-4.2925
X2.6905Y-3.7875
X2.6905Y-4.775
X2.753Y-3.84
X2.753Y-4.7425
X4.0355Y-4.3775
X4.1555Y-3.835
X4.333Y-4.205
X4.373Y-3.9275
X4.373Y-3.9275
X4.9328Y-3.8248
X4.973Y-3.825
X5.3955Y-3.1975
X6.3055Y-1.435
X6.343Y-3.1625
X6.343Y-4.91
T3
X4.538Y-3.8275
X4.538Y-3.9275
X4.538Y-4.0275
X4.638Y-3.8275
X4.638Y-3.9275
X4.638Y-4.0275
X4.9332Y-3.0163
X4.9332Y-3.1163
X4.9332Y-3.2163
X4.9332Y-3.3163
T4
X-6.2698Y-1.5663
X-6.1773Y-4.5663
X-6.082Y-2.3163
X-6.0198Y-1.4663
X-5.9898Y-3.0663
X-5.9273Y-4.4663
X-5.832Y-2.2163
X-5.8023Y-3.8163
X-5.7398Y-2.9663
X-5.5523Y-3.7163
X-5.5198Y-1.5663
X-5.2698Y-1.4663
X-5.2398Y-4.5663
X-5.1448Y-2.3163
X-4.9898Y-4.4663
X-4.9598Y-3.0663
X-4.8948Y-2.2163
X-4.7698Y-1.5663
X-4.7098Y-2.9663
X-4.5848Y-3.8163
X-4.5198Y-1.4663
X-4.3948Y-2.3163
X-4.3348Y-3.7163
X-4.3023Y-4.5663
X-4.2098Y-3.0663
X-4.1448Y-2.2163
X-4.0523Y-4.4663
X-4.0198Y-1.5663
X-3.9598Y-2.9663
X-3.8348Y-3.8163
X-3.7698Y-1.4663
X-3.6448Y-2.3163
X-3.5848Y-3.7163
X-3.4598Y-3.0663
X-3.3948Y-2.2163
X-3.2698Y-1.5663
X-3.2098Y-2.9663
X-3.0848Y-3.8163
X-3.0198Y-1.4663
X-2.8948Y-2.3163
X-2.8348Y-3.7163
X-2.7098Y-3.0663
X-2.6448Y-2.2163
X-2.5198Y-1.5663
X-2.4598Y-2.9663
X-2.3348Y-3.8163
X-2.2698Y-1.4663
X-2.1448Y-2.3163
X-2.0848Y-3.7163
X-1.9598Y-3.0663
X-1.8948Y-2.2163
X-1.7698Y-1.5663
X-1.7098Y-2.9663
X-1.5848Y-3.8163
X-1.5198Y-1.4663
X-1.4883Y-4.5669
X-1.3948Y-2.3163
X-1.3348Y-3.7163
X-1.2383Y-4.4669
X-1.2098Y-3.0663
X-1.1448Y-2.2163
X-1.0198Y-1.5663
X-0.9598Y-2.9663
X-0.8348Y-3.8163
X-0.7698Y-1.4663
X-0.6448Y-2.3163
X-0.5848Y-3.7163
X-0.4598Y-3.0663
X-0.3948Y-2.2163
X-0.2698Y-1.5663
X-0.2098Y-2.9663
X-0.0848Y-3.8163
X-0.0198Y-1.4663
X0.1052Y-2.3163
X0.1652Y-3.7163
X0.2902Y-3.0663
X0.3552Y-2.2163
X0.4802Y-1.5663
X0.5402Y-2.9663
X0.6652Y-3.8163
X0.7302Y-1.4663
X0.8552Y-2.3163
X0.9152Y-3.7163
X1.0402Y-3.0663
X1.1052Y-2.2163
X1.2302Y-1.5663
X1.2902Y-2.9663
X1.3227Y-4.5663
X1.4152Y-3.8163
X1.4802Y-1.4663
X1.5727Y-4.4663
X1.6052Y-2.3163
X1.6652Y-3.7163
X1.7902Y-3.0663
X1.8552Y-2.2163
X1.9802Y-1.5663
X2.0402Y-2.9663
X2.1652Y-3.8163
X2.2302Y-1.4663
X2.2602Y-4.5663
X2.3552Y-2.3163
X2.4152Y-3.7163
X2.5102Y-4.4663
X2.5402Y-3.0663
X2.6052Y-2.2163
X2.7302Y-1.5663
X2.7902Y-2.9663
X2.9802Y-1.4663
X3.1052Y-2.3163
X3.1977Y-4.5663
X3.3552Y-2.2163
X3.4477Y-4.4663
X3.5752Y-3.8163
X3.7627Y-3.0663
X3.8252Y-3.7163
X3.8552Y-1.5663
X4.0127Y-2.9663
X4.0427Y-2.3163
X4.1052Y-1.4663
X4.2927Y-2.2163
X4.4202Y-4.5663
X4.6702Y-4.4663
X5.1702Y-1.5663
X5.1702Y-2.3163
X5.1702Y-3.8163
X5.1702Y-4.5663
X5.4202Y-1.4663
X5.4202Y-2.2163
X5.4202Y-3.7163
X5.4202Y-4.4663
X5.9202Y-1.5663
X5.9202Y-2.3163
X5.9202Y-4.5663
X6.1702Y-1.4663
X6.1702Y-2.2163
X6.1702Y-4.4663
T5
X5.9277Y-3.8813
X6.1277Y-3.8813
T2
G00X-5.9399Y-1.1719
M15
G01X-5.9399Y-1.1955
M16
G05
G00X-5.9399Y-1.3266
M15
G01X-5.9399Y-1.3699
M16
G05
G00X-5.5997Y-1.1719
M15
G01X-5.5997Y-1.1955
M16
G05
G00X-5.5997Y-1.3266
M15
G01X-5.5997Y-1.3699
M16
G05
T0
M30
