G04 #@! TF.GenerationSoftware,KiCad,Pcbnew,(5.1.12)-1*
G04 #@! TF.CreationDate,2021-11-30T17:05:59-08:00*
G04 #@! TF.ProjectId,oled68 pcb,6f6c6564-3638-4207-9063-622e6b696361,rev?*
G04 #@! TF.SameCoordinates,Original*
G04 #@! TF.FileFunction,Legend,Bot*
G04 #@! TF.FilePolarity,Positive*
%FSLAX46Y46*%
G04 Gerber Fmt 4.6, Leading zero omitted, Abs format (unit mm)*
G04 Created by KiCad (PCBNEW (5.1.12)-1) date 2021-11-30 17:05:59*
%MOMM*%
%LPD*%
G01*
G04 APERTURE LIST*
%ADD10C,0.150000*%
%ADD11C,0.120000*%
%ADD12C,0.250000*%
G04 APERTURE END LIST*
D10*
X-11194800Y-112871500D02*
X-10619800Y-112871500D01*
X-11194800Y-123221500D02*
X-10519800Y-123221500D01*
X-844800Y-123221500D02*
X-1519800Y-123221500D01*
X-844800Y-112871500D02*
X-1519800Y-112871500D01*
X-11194800Y-112871500D02*
X-11194800Y-113546500D01*
X-844800Y-112871500D02*
X-844800Y-113546500D01*
X-844800Y-123221500D02*
X-844800Y-122546500D01*
X-11194800Y-123221500D02*
X-11194800Y-122546500D01*
X-10619800Y-112871500D02*
X-10619800Y-111596500D01*
D11*
X11794700Y-120757000D02*
X7294700Y-120757000D01*
X7294700Y-120757000D02*
X7294700Y-115357000D01*
D10*
X-147131800Y-42271000D02*
X-147131800Y-45171000D01*
X-147131800Y-42271000D02*
X-145831800Y-42271000D01*
X-145831800Y-42271000D02*
X-145831800Y-45171000D01*
X-145831800Y-45171000D02*
X-147131800Y-45171000D01*
D11*
X-5983300Y-106002064D02*
X-5983300Y-105547936D01*
X-7453300Y-106002064D02*
X-7453300Y-105547936D01*
X-8586800Y-106002064D02*
X-8586800Y-105547936D01*
X-10056800Y-106002064D02*
X-10056800Y-105547936D01*
X-143603736Y-38795000D02*
X-144057864Y-38795000D01*
X-143603736Y-40265000D02*
X-144057864Y-40265000D01*
X-149065364Y-40265000D02*
X-148611236Y-40265000D01*
X-149065364Y-38795000D02*
X-148611236Y-38795000D01*
X152766136Y-104146000D02*
X153220264Y-104146000D01*
X152766136Y-102676000D02*
X153220264Y-102676000D01*
X-11628364Y-126528500D02*
X-11174236Y-126528500D01*
X-11628364Y-125058500D02*
X-11174236Y-125058500D01*
D12*
X114035200Y-96008500D02*
X114035200Y-98508500D01*
X119035200Y-96008500D02*
X114035200Y-96008500D01*
X119035200Y-98508500D02*
X119035200Y-96008500D01*
X114035200Y-98508500D02*
X119035200Y-98508500D01*
D11*
X-145388300Y-48743436D02*
X-145388300Y-49947564D01*
X-147208300Y-48743436D02*
X-147208300Y-49947564D01*
X157723700Y-125345000D02*
X155723700Y-125345000D01*
X155723700Y-125345000D02*
X155723700Y-121445000D01*
X157723700Y-125345000D02*
X157723700Y-121445000D01*
X157723700Y-49145000D02*
X155723700Y-49145000D01*
X155723700Y-49145000D02*
X155723700Y-45245000D01*
X157723700Y-49145000D02*
X157723700Y-45245000D01*
X157723700Y-68195000D02*
X155723700Y-68195000D01*
X155723700Y-68195000D02*
X155723700Y-64295000D01*
X157723700Y-68195000D02*
X157723700Y-64295000D01*
X138673700Y-125345000D02*
X136673700Y-125345000D01*
X136673700Y-125345000D02*
X136673700Y-121445000D01*
X138673700Y-125345000D02*
X138673700Y-121445000D01*
X138673700Y-106269600D02*
X136673700Y-106269600D01*
X136673700Y-106269600D02*
X136673700Y-102369600D01*
X138673700Y-106269600D02*
X138673700Y-102369600D01*
X138673700Y-68195000D02*
X136673700Y-68195000D01*
X136673700Y-68195000D02*
X136673700Y-64295000D01*
X138673700Y-68195000D02*
X138673700Y-64295000D01*
X138673700Y-49145000D02*
X136673700Y-49145000D01*
X136673700Y-49145000D02*
X136673700Y-45245000D01*
X138673700Y-49145000D02*
X138673700Y-45245000D01*
X119623700Y-125345000D02*
X117623700Y-125345000D01*
X117623700Y-125345000D02*
X117623700Y-121445000D01*
X119623700Y-125345000D02*
X119623700Y-121445000D01*
X98160700Y-106232500D02*
X96160700Y-106232500D01*
X96160700Y-106232500D02*
X96160700Y-102332500D01*
X98160700Y-106232500D02*
X98160700Y-102332500D01*
X102986700Y-87245000D02*
X100986700Y-87245000D01*
X100986700Y-87245000D02*
X100986700Y-83345000D01*
X102986700Y-87245000D02*
X102986700Y-83345000D01*
X110035200Y-68195000D02*
X108035200Y-68195000D01*
X108035200Y-68195000D02*
X108035200Y-64295000D01*
X110035200Y-68195000D02*
X110035200Y-64295000D01*
X105145700Y-49082500D02*
X103145700Y-49082500D01*
X103145700Y-49082500D02*
X103145700Y-45182500D01*
X105145700Y-49082500D02*
X105145700Y-45182500D01*
X86222700Y-68195000D02*
X84222700Y-68195000D01*
X84222700Y-68195000D02*
X84222700Y-64295000D01*
X86222700Y-68195000D02*
X86222700Y-64295000D01*
X76697700Y-49082500D02*
X74697700Y-49082500D01*
X74697700Y-49082500D02*
X74697700Y-45182500D01*
X76697700Y-49082500D02*
X76697700Y-45182500D01*
X88635700Y-125345000D02*
X86635700Y-125345000D01*
X86635700Y-125345000D02*
X86635700Y-121445000D01*
X88635700Y-125345000D02*
X88635700Y-121445000D01*
X71871700Y-87245000D02*
X69871700Y-87245000D01*
X69871700Y-87245000D02*
X69871700Y-83345000D01*
X71871700Y-87245000D02*
X71871700Y-83345000D01*
X67172700Y-68195000D02*
X65172700Y-68195000D01*
X65172700Y-68195000D02*
X65172700Y-64295000D01*
X67172700Y-68195000D02*
X67172700Y-64295000D01*
X57647700Y-49082500D02*
X55647700Y-49082500D01*
X55647700Y-49082500D02*
X55647700Y-45182500D01*
X57647700Y-49082500D02*
X57647700Y-45182500D01*
X64759700Y-125345000D02*
X62759700Y-125345000D01*
X62759700Y-125345000D02*
X62759700Y-121445000D01*
X64759700Y-125345000D02*
X64759700Y-121445000D01*
X62346700Y-106296000D02*
X60346700Y-106296000D01*
X60346700Y-106296000D02*
X60346700Y-102396000D01*
X62346700Y-106296000D02*
X62346700Y-102396000D01*
X52821700Y-87245000D02*
X50821700Y-87245000D01*
X50821700Y-87245000D02*
X50821700Y-83345000D01*
X52821700Y-87245000D02*
X52821700Y-83345000D01*
X48122700Y-68195000D02*
X46122700Y-68195000D01*
X46122700Y-68195000D02*
X46122700Y-64295000D01*
X48122700Y-68195000D02*
X48122700Y-64295000D01*
X38597700Y-49081500D02*
X36597700Y-49081500D01*
X36597700Y-49081500D02*
X36597700Y-45181500D01*
X38597700Y-49081500D02*
X38597700Y-45181500D01*
X40947200Y-125345000D02*
X38947200Y-125345000D01*
X38947200Y-125345000D02*
X38947200Y-121445000D01*
X40947200Y-125345000D02*
X40947200Y-121445000D01*
X43296700Y-106296000D02*
X41296700Y-106296000D01*
X41296700Y-106296000D02*
X41296700Y-102396000D01*
X43296700Y-106296000D02*
X43296700Y-102396000D01*
X33771700Y-87245000D02*
X31771700Y-87245000D01*
X31771700Y-87245000D02*
X31771700Y-83345000D01*
X33771700Y-87245000D02*
X33771700Y-83345000D01*
X29072700Y-68195000D02*
X27072700Y-68195000D01*
X27072700Y-68195000D02*
X27072700Y-64295000D01*
X29072700Y-68195000D02*
X29072700Y-64295000D01*
X19547700Y-49081500D02*
X17547700Y-49081500D01*
X17547700Y-49081500D02*
X17547700Y-45181500D01*
X19547700Y-49081500D02*
X19547700Y-45181500D01*
X24246700Y-106295000D02*
X22246700Y-106295000D01*
X22246700Y-106295000D02*
X22246700Y-102395000D01*
X24246700Y-106295000D02*
X24246700Y-102395000D01*
X14721700Y-87245000D02*
X12721700Y-87245000D01*
X12721700Y-87245000D02*
X12721700Y-83345000D01*
X14721700Y-87245000D02*
X14721700Y-83345000D01*
X10022700Y-68195000D02*
X8022700Y-68195000D01*
X8022700Y-68195000D02*
X8022700Y-64295000D01*
X10022700Y-68195000D02*
X10022700Y-64295000D01*
X497700Y-49081500D02*
X-1502300Y-49081500D01*
X-1502300Y-49081500D02*
X-1502300Y-45181500D01*
X497700Y-49081500D02*
X497700Y-45181500D01*
X5196700Y-106296000D02*
X3196700Y-106296000D01*
X3196700Y-106296000D02*
X3196700Y-102396000D01*
X5196700Y-106296000D02*
X5196700Y-102396000D01*
X-4328300Y-87245000D02*
X-6328300Y-87245000D01*
X-6328300Y-87245000D02*
X-6328300Y-83345000D01*
X-4328300Y-87245000D02*
X-4328300Y-83345000D01*
X-9027300Y-68195000D02*
X-11027300Y-68195000D01*
X-11027300Y-68195000D02*
X-11027300Y-64295000D01*
X-9027300Y-68195000D02*
X-9027300Y-64295000D01*
X-18552300Y-49145000D02*
X-20552300Y-49145000D01*
X-20552300Y-49145000D02*
X-20552300Y-45245000D01*
X-18552300Y-49145000D02*
X-18552300Y-45245000D01*
X-13853300Y-106296000D02*
X-15853300Y-106296000D01*
X-15853300Y-106296000D02*
X-15853300Y-102396000D01*
X-13853300Y-106296000D02*
X-13853300Y-102396000D01*
X-23378300Y-87245000D02*
X-25378300Y-87245000D01*
X-25378300Y-87245000D02*
X-25378300Y-83345000D01*
X-23378300Y-87245000D02*
X-23378300Y-83345000D01*
X-28077300Y-68195000D02*
X-30077300Y-68195000D01*
X-30077300Y-68195000D02*
X-30077300Y-64295000D01*
X-28077300Y-68195000D02*
X-28077300Y-64295000D01*
X-37602300Y-49145000D02*
X-39602300Y-49145000D01*
X-39602300Y-49145000D02*
X-39602300Y-45245000D01*
X-37602300Y-49145000D02*
X-37602300Y-45245000D01*
X-30426800Y-125347000D02*
X-32426800Y-125347000D01*
X-32426800Y-125347000D02*
X-32426800Y-121447000D01*
X-30426800Y-125347000D02*
X-30426800Y-121447000D01*
X-32903300Y-106295000D02*
X-34903300Y-106295000D01*
X-34903300Y-106295000D02*
X-34903300Y-102395000D01*
X-32903300Y-106295000D02*
X-32903300Y-102395000D01*
X-42428300Y-87245000D02*
X-44428300Y-87245000D01*
X-44428300Y-87245000D02*
X-44428300Y-83345000D01*
X-42428300Y-87245000D02*
X-42428300Y-83345000D01*
X-47127300Y-68195000D02*
X-49127300Y-68195000D01*
X-49127300Y-68195000D02*
X-49127300Y-64295000D01*
X-47127300Y-68195000D02*
X-47127300Y-64295000D01*
X-56652300Y-49145000D02*
X-58652300Y-49145000D01*
X-58652300Y-49145000D02*
X-58652300Y-45245000D01*
X-56652300Y-49145000D02*
X-56652300Y-45245000D01*
X-51953300Y-106295000D02*
X-53953300Y-106295000D01*
X-53953300Y-106295000D02*
X-53953300Y-102395000D01*
X-51953300Y-106295000D02*
X-51953300Y-102395000D01*
X-61478300Y-87245000D02*
X-63478300Y-87245000D01*
X-63478300Y-87245000D02*
X-63478300Y-83345000D01*
X-61478300Y-87245000D02*
X-61478300Y-83345000D01*
X-66177300Y-68195000D02*
X-68177300Y-68195000D01*
X-68177300Y-68195000D02*
X-68177300Y-64295000D01*
X-66177300Y-68195000D02*
X-66177300Y-64295000D01*
X-75702300Y-49145000D02*
X-77702300Y-49145000D01*
X-77702300Y-49145000D02*
X-77702300Y-45245000D01*
X-75702300Y-49145000D02*
X-75702300Y-45245000D01*
X-71003300Y-106296000D02*
X-73003300Y-106296000D01*
X-73003300Y-106296000D02*
X-73003300Y-102396000D01*
X-71003300Y-106296000D02*
X-71003300Y-102396000D01*
X-80528300Y-87245000D02*
X-82528300Y-87245000D01*
X-82528300Y-87245000D02*
X-82528300Y-83345000D01*
X-80528300Y-87245000D02*
X-80528300Y-83345000D01*
X-85227300Y-68195000D02*
X-87227300Y-68195000D01*
X-87227300Y-68195000D02*
X-87227300Y-64295000D01*
X-85227300Y-68195000D02*
X-85227300Y-64295000D01*
X-94752300Y-49145000D02*
X-96752300Y-49145000D01*
X-96752300Y-49145000D02*
X-96752300Y-45245000D01*
X-94752300Y-49145000D02*
X-94752300Y-45245000D01*
X-101927800Y-125345000D02*
X-103927800Y-125345000D01*
X-103927800Y-125345000D02*
X-103927800Y-121445000D01*
X-101927800Y-125345000D02*
X-101927800Y-121445000D01*
X-90053300Y-106295000D02*
X-92053300Y-106295000D01*
X-92053300Y-106295000D02*
X-92053300Y-102395000D01*
X-90053300Y-106295000D02*
X-90053300Y-102395000D01*
X-99578300Y-87245000D02*
X-101578300Y-87245000D01*
X-101578300Y-87245000D02*
X-101578300Y-83345000D01*
X-99578300Y-87245000D02*
X-99578300Y-83345000D01*
X-104277300Y-68195000D02*
X-106277300Y-68195000D01*
X-106277300Y-68195000D02*
X-106277300Y-64295000D01*
X-104277300Y-68195000D02*
X-104277300Y-64295000D01*
X-113802300Y-49145000D02*
X-115802300Y-49145000D01*
X-115802300Y-49145000D02*
X-115802300Y-45245000D01*
X-113802300Y-49145000D02*
X-113802300Y-45245000D01*
X-125740300Y-125345000D02*
X-127740300Y-125345000D01*
X-127740300Y-125345000D02*
X-127740300Y-121445000D01*
X-125740300Y-125345000D02*
X-125740300Y-121445000D01*
X-109103300Y-106295000D02*
X-111103300Y-106295000D01*
X-111103300Y-106295000D02*
X-111103300Y-102395000D01*
X-109103300Y-106295000D02*
X-109103300Y-102395000D01*
X-118628300Y-87245000D02*
X-120628300Y-87245000D01*
X-120628300Y-87245000D02*
X-120628300Y-83345000D01*
X-118628300Y-87245000D02*
X-118628300Y-83345000D01*
X-123327300Y-68195000D02*
X-125327300Y-68195000D01*
X-125327300Y-68195000D02*
X-125327300Y-64295000D01*
X-123327300Y-68195000D02*
X-123327300Y-64295000D01*
X-132852300Y-49145000D02*
X-134852300Y-49145000D01*
X-134852300Y-49145000D02*
X-134852300Y-45245000D01*
X-132852300Y-49145000D02*
X-132852300Y-45245000D01*
X-149616300Y-125345000D02*
X-151616300Y-125345000D01*
X-151616300Y-125345000D02*
X-151616300Y-121445000D01*
X-149616300Y-125345000D02*
X-149616300Y-121445000D01*
X-140091300Y-106295000D02*
X-142091300Y-106295000D01*
X-142091300Y-106295000D02*
X-142091300Y-102395000D01*
X-140091300Y-106295000D02*
X-140091300Y-102395000D01*
X-144790300Y-87245000D02*
X-146790300Y-87245000D01*
X-146790300Y-87245000D02*
X-146790300Y-83345000D01*
X-144790300Y-87245000D02*
X-144790300Y-83345000D01*
X-147139800Y-68195000D02*
X-149139800Y-68195000D01*
X-149139800Y-68195000D02*
X-149139800Y-64295000D01*
X-147139800Y-68195000D02*
X-147139800Y-64295000D01*
X-151902300Y-49145000D02*
X-151902300Y-45245000D01*
X-153902300Y-49145000D02*
X-153902300Y-45245000D01*
X-151902300Y-49145000D02*
X-153902300Y-49145000D01*
X-13545008Y-109084440D02*
X-14067512Y-109084440D01*
X-13545008Y-110554440D02*
X-14067512Y-110554440D01*
X2333448Y-125957000D02*
X2855952Y-125957000D01*
X2333448Y-124487000D02*
X2855952Y-124487000D01*
X4738700Y-113213248D02*
X4738700Y-113735752D01*
X6208700Y-113213248D02*
X6208700Y-113735752D01*
X-13984300Y-122752752D02*
X-13984300Y-122230248D01*
X-15454300Y-122752752D02*
X-15454300Y-122230248D01*
X-77800Y-106010252D02*
X-77800Y-105487748D01*
X-1547800Y-106010252D02*
X-1547800Y-105487748D01*
X13946948Y-117227000D02*
X14469452Y-117227000D01*
X13946948Y-115757000D02*
X14469452Y-115757000D01*
X13862948Y-120783000D02*
X14385452Y-120783000D01*
X13862948Y-119313000D02*
X14385452Y-119313000D01*
X-2808300Y-106073752D02*
X-2808300Y-105551248D01*
X-4278300Y-106073752D02*
X-4278300Y-105551248D01*
D10*
X-14017419Y-117284595D02*
X-13207895Y-117284595D01*
X-13112657Y-117332214D01*
X-13065038Y-117379833D01*
X-13017419Y-117475071D01*
X-13017419Y-117665547D01*
X-13065038Y-117760785D01*
X-13112657Y-117808404D01*
X-13207895Y-117856023D01*
X-14017419Y-117856023D01*
X-13017419Y-118856023D02*
X-13017419Y-118284595D01*
X-13017419Y-118570309D02*
X-14017419Y-118570309D01*
X-13874561Y-118475071D01*
X-13779323Y-118379833D01*
X-13731704Y-118284595D01*
X162921200Y-76897380D02*
X162921200Y-75897380D01*
X162587866Y-76611666D01*
X162254533Y-75897380D01*
X162254533Y-76897380D01*
X161873580Y-75897380D02*
X161254533Y-75897380D01*
X161587866Y-76278333D01*
X161445009Y-76278333D01*
X161349771Y-76325952D01*
X161302152Y-76373571D01*
X161254533Y-76468809D01*
X161254533Y-76706904D01*
X161302152Y-76802142D01*
X161349771Y-76849761D01*
X161445009Y-76897380D01*
X161730723Y-76897380D01*
X161825961Y-76849761D01*
X161873580Y-76802142D01*
X159492628Y-76897380D02*
X159825961Y-76421190D01*
X160064057Y-76897380D02*
X160064057Y-75897380D01*
X159683104Y-75897380D01*
X159587866Y-75945000D01*
X159540247Y-75992619D01*
X159492628Y-76087857D01*
X159492628Y-76230714D01*
X159540247Y-76325952D01*
X159587866Y-76373571D01*
X159683104Y-76421190D01*
X160064057Y-76421190D01*
X159064057Y-76897380D02*
X159064057Y-76230714D01*
X159064057Y-75897380D02*
X159111676Y-75945000D01*
X159064057Y-75992619D01*
X159016438Y-75945000D01*
X159064057Y-75897380D01*
X159064057Y-75992619D01*
X158635485Y-76849761D02*
X158540247Y-76897380D01*
X158349771Y-76897380D01*
X158254533Y-76849761D01*
X158206914Y-76754523D01*
X158206914Y-76706904D01*
X158254533Y-76611666D01*
X158349771Y-76564047D01*
X158492628Y-76564047D01*
X158587866Y-76516428D01*
X158635485Y-76421190D01*
X158635485Y-76373571D01*
X158587866Y-76278333D01*
X158492628Y-76230714D01*
X158349771Y-76230714D01*
X158254533Y-76278333D01*
X157397390Y-76849761D02*
X157492628Y-76897380D01*
X157683104Y-76897380D01*
X157778342Y-76849761D01*
X157825961Y-76754523D01*
X157825961Y-76373571D01*
X157778342Y-76278333D01*
X157683104Y-76230714D01*
X157492628Y-76230714D01*
X157397390Y-76278333D01*
X157349771Y-76373571D01*
X157349771Y-76468809D01*
X157825961Y-76564047D01*
X156921200Y-76897380D02*
X156921200Y-76230714D01*
X156921200Y-76421190D02*
X156873580Y-76325952D01*
X156825961Y-76278333D01*
X156730723Y-76230714D01*
X156635485Y-76230714D01*
X155587866Y-76849761D02*
X155445009Y-76897380D01*
X155206914Y-76897380D01*
X155111676Y-76849761D01*
X155064057Y-76802142D01*
X155016438Y-76706904D01*
X155016438Y-76611666D01*
X155064057Y-76516428D01*
X155111676Y-76468809D01*
X155206914Y-76421190D01*
X155397390Y-76373571D01*
X155492628Y-76325952D01*
X155540247Y-76278333D01*
X155587866Y-76183095D01*
X155587866Y-76087857D01*
X155540247Y-75992619D01*
X155492628Y-75945000D01*
X155397390Y-75897380D01*
X155159295Y-75897380D01*
X155016438Y-75945000D01*
X154587866Y-76230714D02*
X154587866Y-77230714D01*
X154587866Y-76278333D02*
X154492628Y-76230714D01*
X154302152Y-76230714D01*
X154206914Y-76278333D01*
X154159295Y-76325952D01*
X154111676Y-76421190D01*
X154111676Y-76706904D01*
X154159295Y-76802142D01*
X154206914Y-76849761D01*
X154302152Y-76897380D01*
X154492628Y-76897380D01*
X154587866Y-76849761D01*
X153254533Y-76897380D02*
X153254533Y-76373571D01*
X153302152Y-76278333D01*
X153397390Y-76230714D01*
X153587866Y-76230714D01*
X153683104Y-76278333D01*
X153254533Y-76849761D02*
X153349771Y-76897380D01*
X153587866Y-76897380D01*
X153683104Y-76849761D01*
X153730723Y-76754523D01*
X153730723Y-76659285D01*
X153683104Y-76564047D01*
X153587866Y-76516428D01*
X153349771Y-76516428D01*
X153254533Y-76468809D01*
X152349771Y-76849761D02*
X152445009Y-76897380D01*
X152635485Y-76897380D01*
X152730723Y-76849761D01*
X152778342Y-76802142D01*
X152825961Y-76706904D01*
X152825961Y-76421190D01*
X152778342Y-76325952D01*
X152730723Y-76278333D01*
X152635485Y-76230714D01*
X152445009Y-76230714D01*
X152349771Y-76278333D01*
X151540247Y-76849761D02*
X151635485Y-76897380D01*
X151825961Y-76897380D01*
X151921200Y-76849761D01*
X151968819Y-76754523D01*
X151968819Y-76373571D01*
X151921200Y-76278333D01*
X151825961Y-76230714D01*
X151635485Y-76230714D01*
X151540247Y-76278333D01*
X151492628Y-76373571D01*
X151492628Y-76468809D01*
X151968819Y-76564047D01*
X151064057Y-76897380D02*
X151064057Y-76230714D01*
X151064057Y-76421190D02*
X151016438Y-76325952D01*
X150968819Y-76278333D01*
X150873580Y-76230714D01*
X150778342Y-76230714D01*
X156406104Y-101937380D02*
X156406104Y-100937380D01*
X156406104Y-101413571D02*
X155834676Y-101413571D01*
X155834676Y-101937380D02*
X155834676Y-100937380D01*
X155406104Y-101032619D02*
X155358485Y-100985000D01*
X155263247Y-100937380D01*
X155025152Y-100937380D01*
X154929914Y-100985000D01*
X154882295Y-101032619D01*
X154834676Y-101127857D01*
X154834676Y-101223095D01*
X154882295Y-101365952D01*
X155453723Y-101937380D01*
X154834676Y-101937380D01*
X151326104Y-101937380D02*
X151326104Y-100937380D01*
X151326104Y-101413571D02*
X150754676Y-101413571D01*
X150754676Y-101937380D02*
X150754676Y-100937380D01*
X149754676Y-101937380D02*
X150326104Y-101937380D01*
X150040390Y-101937380D02*
X150040390Y-100937380D01*
X150135628Y-101080238D01*
X150230866Y-101175476D01*
X150326104Y-101223095D01*
X12570890Y-117580809D02*
X13047080Y-117580809D01*
X12047080Y-117247476D02*
X12570890Y-117580809D01*
X12047080Y-117914142D01*
X13047080Y-118771285D02*
X13047080Y-118199857D01*
X13047080Y-118485571D02*
X12047080Y-118485571D01*
X12189938Y-118390333D01*
X12285176Y-118295095D01*
X12332795Y-118199857D01*
X-144314204Y-37117380D02*
X-144314204Y-37926904D01*
X-144361823Y-38022142D01*
X-144409442Y-38069761D01*
X-144504680Y-38117380D01*
X-144695157Y-38117380D01*
X-144790395Y-38069761D01*
X-144838014Y-38022142D01*
X-144885633Y-37926904D01*
X-144885633Y-37117380D01*
X-145314204Y-38069761D02*
X-145457061Y-38117380D01*
X-145695157Y-38117380D01*
X-145790395Y-38069761D01*
X-145838014Y-38022142D01*
X-145885633Y-37926904D01*
X-145885633Y-37831666D01*
X-145838014Y-37736428D01*
X-145790395Y-37688809D01*
X-145695157Y-37641190D01*
X-145504680Y-37593571D01*
X-145409442Y-37545952D01*
X-145361823Y-37498333D01*
X-145314204Y-37403095D01*
X-145314204Y-37307857D01*
X-145361823Y-37212619D01*
X-145409442Y-37165000D01*
X-145504680Y-37117380D01*
X-145742776Y-37117380D01*
X-145885633Y-37165000D01*
X-146647538Y-37593571D02*
X-146790395Y-37641190D01*
X-146838014Y-37688809D01*
X-146885633Y-37784047D01*
X-146885633Y-37926904D01*
X-146838014Y-38022142D01*
X-146790395Y-38069761D01*
X-146695157Y-38117380D01*
X-146314204Y-38117380D01*
X-146314204Y-37117380D01*
X-146647538Y-37117380D01*
X-146742776Y-37165000D01*
X-146790395Y-37212619D01*
X-146838014Y-37307857D01*
X-146838014Y-37403095D01*
X-146790395Y-37498333D01*
X-146742776Y-37545952D01*
X-146647538Y-37593571D01*
X-146314204Y-37593571D01*
X-147885633Y-38022142D02*
X-147838014Y-38069761D01*
X-147695157Y-38117380D01*
X-147599919Y-38117380D01*
X-147457061Y-38069761D01*
X-147361823Y-37974523D01*
X-147314204Y-37879285D01*
X-147266585Y-37688809D01*
X-147266585Y-37545952D01*
X-147314204Y-37355476D01*
X-147361823Y-37260238D01*
X-147457061Y-37165000D01*
X-147599919Y-37117380D01*
X-147695157Y-37117380D01*
X-147838014Y-37165000D01*
X-147885633Y-37212619D01*
X-148838014Y-38117380D02*
X-148266585Y-38117380D01*
X-148552300Y-38117380D02*
X-148552300Y-37117380D01*
X-148457061Y-37260238D01*
X-148361823Y-37355476D01*
X-148266585Y-37403095D01*
X-145243704Y-45623380D02*
X-145243704Y-46432904D01*
X-145291323Y-46528142D01*
X-145338942Y-46575761D01*
X-145434180Y-46623380D01*
X-145624657Y-46623380D01*
X-145719895Y-46575761D01*
X-145767514Y-46528142D01*
X-145815133Y-46432904D01*
X-145815133Y-45623380D01*
X-146767514Y-45623380D02*
X-146291323Y-45623380D01*
X-146243704Y-46099571D01*
X-146291323Y-46051952D01*
X-146386561Y-46004333D01*
X-146624657Y-46004333D01*
X-146719895Y-46051952D01*
X-146767514Y-46099571D01*
X-146815133Y-46194809D01*
X-146815133Y-46432904D01*
X-146767514Y-46528142D01*
X-146719895Y-46575761D01*
X-146624657Y-46623380D01*
X-146386561Y-46623380D01*
X-146291323Y-46575761D01*
X-146243704Y-46528142D01*
X-147672276Y-45623380D02*
X-147481800Y-45623380D01*
X-147386561Y-45671000D01*
X-147338942Y-45718619D01*
X-147243704Y-45861476D01*
X-147196085Y-46051952D01*
X-147196085Y-46432904D01*
X-147243704Y-46528142D01*
X-147291323Y-46575761D01*
X-147386561Y-46623380D01*
X-147577038Y-46623380D01*
X-147672276Y-46575761D01*
X-147719895Y-46528142D01*
X-147767514Y-46432904D01*
X-147767514Y-46194809D01*
X-147719895Y-46099571D01*
X-147672276Y-46051952D01*
X-147577038Y-46004333D01*
X-147386561Y-46004333D01*
X-147291323Y-46051952D01*
X-147243704Y-46099571D01*
X-147196085Y-46194809D01*
X-4615919Y-105608333D02*
X-5092109Y-105275000D01*
X-4615919Y-105036904D02*
X-5615919Y-105036904D01*
X-5615919Y-105417857D01*
X-5568300Y-105513095D01*
X-5520680Y-105560714D01*
X-5425442Y-105608333D01*
X-5282585Y-105608333D01*
X-5187347Y-105560714D01*
X-5139728Y-105513095D01*
X-5092109Y-105417857D01*
X-5092109Y-105036904D01*
X-5615919Y-106465476D02*
X-5615919Y-106275000D01*
X-5568300Y-106179761D01*
X-5520680Y-106132142D01*
X-5377823Y-106036904D01*
X-5187347Y-105989285D01*
X-4806395Y-105989285D01*
X-4711157Y-106036904D01*
X-4663538Y-106084523D01*
X-4615919Y-106179761D01*
X-4615919Y-106370238D01*
X-4663538Y-106465476D01*
X-4711157Y-106513095D01*
X-4806395Y-106560714D01*
X-5044490Y-106560714D01*
X-5139728Y-106513095D01*
X-5187347Y-106465476D01*
X-5234966Y-106370238D01*
X-5234966Y-106179761D01*
X-5187347Y-106084523D01*
X-5139728Y-106036904D01*
X-5044490Y-105989285D01*
X-7219419Y-105608333D02*
X-7695609Y-105275000D01*
X-7219419Y-105036904D02*
X-8219419Y-105036904D01*
X-8219419Y-105417857D01*
X-8171800Y-105513095D01*
X-8124180Y-105560714D01*
X-8028942Y-105608333D01*
X-7886085Y-105608333D01*
X-7790847Y-105560714D01*
X-7743228Y-105513095D01*
X-7695609Y-105417857D01*
X-7695609Y-105036904D01*
X-8219419Y-106513095D02*
X-8219419Y-106036904D01*
X-7743228Y-105989285D01*
X-7790847Y-106036904D01*
X-7838466Y-106132142D01*
X-7838466Y-106370238D01*
X-7790847Y-106465476D01*
X-7743228Y-106513095D01*
X-7647990Y-106560714D01*
X-7409895Y-106560714D01*
X-7314657Y-106513095D01*
X-7267038Y-106465476D01*
X-7219419Y-106370238D01*
X-7219419Y-106132142D01*
X-7267038Y-106036904D01*
X-7314657Y-105989285D01*
X-143664133Y-38332380D02*
X-143330800Y-37856190D01*
X-143092704Y-38332380D02*
X-143092704Y-37332380D01*
X-143473657Y-37332380D01*
X-143568895Y-37380000D01*
X-143616514Y-37427619D01*
X-143664133Y-37522857D01*
X-143664133Y-37665714D01*
X-143616514Y-37760952D01*
X-143568895Y-37808571D01*
X-143473657Y-37856190D01*
X-143092704Y-37856190D01*
X-144521276Y-37665714D02*
X-144521276Y-38332380D01*
X-144283180Y-37284761D02*
X-144045085Y-37999047D01*
X-144664133Y-37999047D01*
X-148671633Y-41632380D02*
X-148338300Y-41156190D01*
X-148100204Y-41632380D02*
X-148100204Y-40632380D01*
X-148481157Y-40632380D01*
X-148576395Y-40680000D01*
X-148624014Y-40727619D01*
X-148671633Y-40822857D01*
X-148671633Y-40965714D01*
X-148624014Y-41060952D01*
X-148576395Y-41108571D01*
X-148481157Y-41156190D01*
X-148100204Y-41156190D01*
X-149004966Y-40632380D02*
X-149624014Y-40632380D01*
X-149290680Y-41013333D01*
X-149433538Y-41013333D01*
X-149528776Y-41060952D01*
X-149576395Y-41108571D01*
X-149624014Y-41203809D01*
X-149624014Y-41441904D01*
X-149576395Y-41537142D01*
X-149528776Y-41584761D01*
X-149433538Y-41632380D01*
X-149147823Y-41632380D01*
X-149052585Y-41584761D01*
X-149004966Y-41537142D01*
X153159866Y-105513380D02*
X153493200Y-105037190D01*
X153731295Y-105513380D02*
X153731295Y-104513380D01*
X153350342Y-104513380D01*
X153255104Y-104561000D01*
X153207485Y-104608619D01*
X153159866Y-104703857D01*
X153159866Y-104846714D01*
X153207485Y-104941952D01*
X153255104Y-104989571D01*
X153350342Y-105037190D01*
X153731295Y-105037190D01*
X152778914Y-104608619D02*
X152731295Y-104561000D01*
X152636057Y-104513380D01*
X152397961Y-104513380D01*
X152302723Y-104561000D01*
X152255104Y-104608619D01*
X152207485Y-104703857D01*
X152207485Y-104799095D01*
X152255104Y-104941952D01*
X152826533Y-105513380D01*
X152207485Y-105513380D01*
X-11234633Y-127895880D02*
X-10901300Y-127419690D01*
X-10663204Y-127895880D02*
X-10663204Y-126895880D01*
X-11044157Y-126895880D01*
X-11139395Y-126943500D01*
X-11187014Y-126991119D01*
X-11234633Y-127086357D01*
X-11234633Y-127229214D01*
X-11187014Y-127324452D01*
X-11139395Y-127372071D01*
X-11044157Y-127419690D01*
X-10663204Y-127419690D01*
X-12187014Y-127895880D02*
X-11615585Y-127895880D01*
X-11901300Y-127895880D02*
X-11901300Y-126895880D01*
X-11806061Y-127038738D01*
X-11710823Y-127133976D01*
X-11615585Y-127181595D01*
X121547104Y-96758500D02*
X121642342Y-96710880D01*
X121785200Y-96710880D01*
X121928057Y-96758500D01*
X122023295Y-96853738D01*
X122070914Y-96948976D01*
X122118533Y-97139452D01*
X122118533Y-97282309D01*
X122070914Y-97472785D01*
X122023295Y-97568023D01*
X121928057Y-97663261D01*
X121785200Y-97710880D01*
X121689961Y-97710880D01*
X121547104Y-97663261D01*
X121499485Y-97615642D01*
X121499485Y-97282309D01*
X121689961Y-97282309D01*
X121070914Y-97710880D02*
X121070914Y-96710880D01*
X120499485Y-97710880D01*
X120499485Y-96710880D01*
X120023295Y-97710880D02*
X120023295Y-96710880D01*
X119785200Y-96710880D01*
X119642342Y-96758500D01*
X119547104Y-96853738D01*
X119499485Y-96948976D01*
X119451866Y-97139452D01*
X119451866Y-97282309D01*
X119499485Y-97472785D01*
X119547104Y-97568023D01*
X119642342Y-97663261D01*
X119785200Y-97710880D01*
X120023295Y-97710880D01*
X112832819Y-97710880D02*
X113166152Y-97234690D01*
X113404247Y-97710880D02*
X113404247Y-96710880D01*
X113023295Y-96710880D01*
X112928057Y-96758500D01*
X112880438Y-96806119D01*
X112832819Y-96901357D01*
X112832819Y-97044214D01*
X112880438Y-97139452D01*
X112928057Y-97187071D01*
X113023295Y-97234690D01*
X113404247Y-97234690D01*
X112451866Y-97663261D02*
X112309009Y-97710880D01*
X112070914Y-97710880D01*
X111975676Y-97663261D01*
X111928057Y-97615642D01*
X111880438Y-97520404D01*
X111880438Y-97425166D01*
X111928057Y-97329928D01*
X111975676Y-97282309D01*
X112070914Y-97234690D01*
X112261390Y-97187071D01*
X112356628Y-97139452D01*
X112404247Y-97091833D01*
X112451866Y-96996595D01*
X112451866Y-96901357D01*
X112404247Y-96806119D01*
X112356628Y-96758500D01*
X112261390Y-96710880D01*
X112023295Y-96710880D01*
X111880438Y-96758500D01*
X111594723Y-96710880D02*
X111023295Y-96710880D01*
X111309009Y-97710880D02*
X111309009Y-96710880D01*
X122356628Y-100210880D02*
X122356628Y-99210880D01*
X122023295Y-99925166D01*
X121689961Y-99210880D01*
X121689961Y-100210880D01*
X121023295Y-99210880D02*
X120832819Y-99210880D01*
X120737580Y-99258500D01*
X120642342Y-99353738D01*
X120594723Y-99544214D01*
X120594723Y-99877547D01*
X120642342Y-100068023D01*
X120737580Y-100163261D01*
X120832819Y-100210880D01*
X121023295Y-100210880D01*
X121118533Y-100163261D01*
X121213771Y-100068023D01*
X121261390Y-99877547D01*
X121261390Y-99544214D01*
X121213771Y-99353738D01*
X121118533Y-99258500D01*
X121023295Y-99210880D01*
X120213771Y-100163261D02*
X120070914Y-100210880D01*
X119832819Y-100210880D01*
X119737580Y-100163261D01*
X119689961Y-100115642D01*
X119642342Y-100020404D01*
X119642342Y-99925166D01*
X119689961Y-99829928D01*
X119737580Y-99782309D01*
X119832819Y-99734690D01*
X120023295Y-99687071D01*
X120118533Y-99639452D01*
X120166152Y-99591833D01*
X120213771Y-99496595D01*
X120213771Y-99401357D01*
X120166152Y-99306119D01*
X120118533Y-99258500D01*
X120023295Y-99210880D01*
X119785200Y-99210880D01*
X119642342Y-99258500D01*
X119213771Y-100210880D02*
X119213771Y-99210880D01*
X113820914Y-100163261D02*
X113678057Y-100210880D01*
X113439961Y-100210880D01*
X113344723Y-100163261D01*
X113297104Y-100115642D01*
X113249485Y-100020404D01*
X113249485Y-99925166D01*
X113297104Y-99829928D01*
X113344723Y-99782309D01*
X113439961Y-99734690D01*
X113630438Y-99687071D01*
X113725676Y-99639452D01*
X113773295Y-99591833D01*
X113820914Y-99496595D01*
X113820914Y-99401357D01*
X113773295Y-99306119D01*
X113725676Y-99258500D01*
X113630438Y-99210880D01*
X113392342Y-99210880D01*
X113249485Y-99258500D01*
X112249485Y-100115642D02*
X112297104Y-100163261D01*
X112439961Y-100210880D01*
X112535200Y-100210880D01*
X112678057Y-100163261D01*
X112773295Y-100068023D01*
X112820914Y-99972785D01*
X112868533Y-99782309D01*
X112868533Y-99639452D01*
X112820914Y-99448976D01*
X112773295Y-99353738D01*
X112678057Y-99258500D01*
X112535200Y-99210880D01*
X112439961Y-99210880D01*
X112297104Y-99258500D01*
X112249485Y-99306119D01*
X111820914Y-100210880D02*
X111820914Y-99210880D01*
X111249485Y-100210880D02*
X111678057Y-99639452D01*
X111249485Y-99210880D02*
X111820914Y-99782309D01*
X121868533Y-101710880D02*
X121535200Y-102710880D01*
X121201866Y-101710880D01*
X120297104Y-102615642D02*
X120344723Y-102663261D01*
X120487580Y-102710880D01*
X120582819Y-102710880D01*
X120725676Y-102663261D01*
X120820914Y-102568023D01*
X120868533Y-102472785D01*
X120916152Y-102282309D01*
X120916152Y-102139452D01*
X120868533Y-101948976D01*
X120820914Y-101853738D01*
X120725676Y-101758500D01*
X120582819Y-101710880D01*
X120487580Y-101710880D01*
X120344723Y-101758500D01*
X120297104Y-101806119D01*
X119297104Y-102615642D02*
X119344723Y-102663261D01*
X119487580Y-102710880D01*
X119582819Y-102710880D01*
X119725676Y-102663261D01*
X119820914Y-102568023D01*
X119868533Y-102472785D01*
X119916152Y-102282309D01*
X119916152Y-102139452D01*
X119868533Y-101948976D01*
X119820914Y-101853738D01*
X119725676Y-101758500D01*
X119582819Y-101710880D01*
X119487580Y-101710880D01*
X119344723Y-101758500D01*
X119297104Y-101806119D01*
X113856628Y-102710880D02*
X113856628Y-101710880D01*
X113523295Y-102425166D01*
X113189961Y-101710880D01*
X113189961Y-102710880D01*
X112713771Y-102710880D02*
X112713771Y-101710880D01*
X112285200Y-102663261D02*
X112142342Y-102710880D01*
X111904247Y-102710880D01*
X111809009Y-102663261D01*
X111761390Y-102615642D01*
X111713771Y-102520404D01*
X111713771Y-102425166D01*
X111761390Y-102329928D01*
X111809009Y-102282309D01*
X111904247Y-102234690D01*
X112094723Y-102187071D01*
X112189961Y-102139452D01*
X112237580Y-102091833D01*
X112285200Y-101996595D01*
X112285200Y-101901357D01*
X112237580Y-101806119D01*
X112189961Y-101758500D01*
X112094723Y-101710880D01*
X111856628Y-101710880D01*
X111713771Y-101758500D01*
X111094723Y-101710880D02*
X110904247Y-101710880D01*
X110809009Y-101758500D01*
X110713771Y-101853738D01*
X110666152Y-102044214D01*
X110666152Y-102377547D01*
X110713771Y-102568023D01*
X110809009Y-102663261D01*
X110904247Y-102710880D01*
X111094723Y-102710880D01*
X111189961Y-102663261D01*
X111285200Y-102568023D01*
X111332819Y-102377547D01*
X111332819Y-102044214D01*
X111285200Y-101853738D01*
X111189961Y-101758500D01*
X111094723Y-101710880D01*
X-148189728Y-49012166D02*
X-148189728Y-48678833D01*
X-147665919Y-48678833D02*
X-148665919Y-48678833D01*
X-148665919Y-49155023D01*
X-147665919Y-50059785D02*
X-147665919Y-49488357D01*
X-147665919Y-49774071D02*
X-148665919Y-49774071D01*
X-148523061Y-49678833D01*
X-148427823Y-49583595D01*
X-148380204Y-49488357D01*
X159176080Y-121880714D02*
X158176080Y-121880714D01*
X158176080Y-122118809D01*
X158223700Y-122261666D01*
X158318938Y-122356904D01*
X158414176Y-122404523D01*
X158604652Y-122452142D01*
X158747509Y-122452142D01*
X158937985Y-122404523D01*
X159033223Y-122356904D01*
X159128461Y-122261666D01*
X159176080Y-122118809D01*
X159176080Y-121880714D01*
X158176080Y-123309285D02*
X158176080Y-123118809D01*
X158223700Y-123023571D01*
X158271319Y-122975952D01*
X158414176Y-122880714D01*
X158604652Y-122833095D01*
X158985604Y-122833095D01*
X159080842Y-122880714D01*
X159128461Y-122928333D01*
X159176080Y-123023571D01*
X159176080Y-123214047D01*
X159128461Y-123309285D01*
X159080842Y-123356904D01*
X158985604Y-123404523D01*
X158747509Y-123404523D01*
X158652271Y-123356904D01*
X158604652Y-123309285D01*
X158557033Y-123214047D01*
X158557033Y-123023571D01*
X158604652Y-122928333D01*
X158652271Y-122880714D01*
X158747509Y-122833095D01*
X158604652Y-123975952D02*
X158557033Y-123880714D01*
X158509414Y-123833095D01*
X158414176Y-123785476D01*
X158366557Y-123785476D01*
X158271319Y-123833095D01*
X158223700Y-123880714D01*
X158176080Y-123975952D01*
X158176080Y-124166428D01*
X158223700Y-124261666D01*
X158271319Y-124309285D01*
X158366557Y-124356904D01*
X158414176Y-124356904D01*
X158509414Y-124309285D01*
X158557033Y-124261666D01*
X158604652Y-124166428D01*
X158604652Y-123975952D01*
X158652271Y-123880714D01*
X158699890Y-123833095D01*
X158795128Y-123785476D01*
X158985604Y-123785476D01*
X159080842Y-123833095D01*
X159128461Y-123880714D01*
X159176080Y-123975952D01*
X159176080Y-124166428D01*
X159128461Y-124261666D01*
X159080842Y-124309285D01*
X158985604Y-124356904D01*
X158795128Y-124356904D01*
X158699890Y-124309285D01*
X158652271Y-124261666D01*
X158604652Y-124166428D01*
X159176080Y-45680714D02*
X158176080Y-45680714D01*
X158176080Y-45918809D01*
X158223700Y-46061666D01*
X158318938Y-46156904D01*
X158414176Y-46204523D01*
X158604652Y-46252142D01*
X158747509Y-46252142D01*
X158937985Y-46204523D01*
X159033223Y-46156904D01*
X159128461Y-46061666D01*
X159176080Y-45918809D01*
X159176080Y-45680714D01*
X158176080Y-47109285D02*
X158176080Y-46918809D01*
X158223700Y-46823571D01*
X158271319Y-46775952D01*
X158414176Y-46680714D01*
X158604652Y-46633095D01*
X158985604Y-46633095D01*
X159080842Y-46680714D01*
X159128461Y-46728333D01*
X159176080Y-46823571D01*
X159176080Y-47014047D01*
X159128461Y-47109285D01*
X159080842Y-47156904D01*
X158985604Y-47204523D01*
X158747509Y-47204523D01*
X158652271Y-47156904D01*
X158604652Y-47109285D01*
X158557033Y-47014047D01*
X158557033Y-46823571D01*
X158604652Y-46728333D01*
X158652271Y-46680714D01*
X158747509Y-46633095D01*
X158176080Y-47537857D02*
X158176080Y-48204523D01*
X159176080Y-47775952D01*
X159176080Y-64730714D02*
X158176080Y-64730714D01*
X158176080Y-64968809D01*
X158223700Y-65111666D01*
X158318938Y-65206904D01*
X158414176Y-65254523D01*
X158604652Y-65302142D01*
X158747509Y-65302142D01*
X158937985Y-65254523D01*
X159033223Y-65206904D01*
X159128461Y-65111666D01*
X159176080Y-64968809D01*
X159176080Y-64730714D01*
X158176080Y-66159285D02*
X158176080Y-65968809D01*
X158223700Y-65873571D01*
X158271319Y-65825952D01*
X158414176Y-65730714D01*
X158604652Y-65683095D01*
X158985604Y-65683095D01*
X159080842Y-65730714D01*
X159128461Y-65778333D01*
X159176080Y-65873571D01*
X159176080Y-66064047D01*
X159128461Y-66159285D01*
X159080842Y-66206904D01*
X158985604Y-66254523D01*
X158747509Y-66254523D01*
X158652271Y-66206904D01*
X158604652Y-66159285D01*
X158557033Y-66064047D01*
X158557033Y-65873571D01*
X158604652Y-65778333D01*
X158652271Y-65730714D01*
X158747509Y-65683095D01*
X158176080Y-67111666D02*
X158176080Y-66921190D01*
X158223700Y-66825952D01*
X158271319Y-66778333D01*
X158414176Y-66683095D01*
X158604652Y-66635476D01*
X158985604Y-66635476D01*
X159080842Y-66683095D01*
X159128461Y-66730714D01*
X159176080Y-66825952D01*
X159176080Y-67016428D01*
X159128461Y-67111666D01*
X159080842Y-67159285D01*
X158985604Y-67206904D01*
X158747509Y-67206904D01*
X158652271Y-67159285D01*
X158604652Y-67111666D01*
X158557033Y-67016428D01*
X158557033Y-66825952D01*
X158604652Y-66730714D01*
X158652271Y-66683095D01*
X158747509Y-66635476D01*
X140126080Y-121880714D02*
X139126080Y-121880714D01*
X139126080Y-122118809D01*
X139173700Y-122261666D01*
X139268938Y-122356904D01*
X139364176Y-122404523D01*
X139554652Y-122452142D01*
X139697509Y-122452142D01*
X139887985Y-122404523D01*
X139983223Y-122356904D01*
X140078461Y-122261666D01*
X140126080Y-122118809D01*
X140126080Y-121880714D01*
X139126080Y-123309285D02*
X139126080Y-123118809D01*
X139173700Y-123023571D01*
X139221319Y-122975952D01*
X139364176Y-122880714D01*
X139554652Y-122833095D01*
X139935604Y-122833095D01*
X140030842Y-122880714D01*
X140078461Y-122928333D01*
X140126080Y-123023571D01*
X140126080Y-123214047D01*
X140078461Y-123309285D01*
X140030842Y-123356904D01*
X139935604Y-123404523D01*
X139697509Y-123404523D01*
X139602271Y-123356904D01*
X139554652Y-123309285D01*
X139507033Y-123214047D01*
X139507033Y-123023571D01*
X139554652Y-122928333D01*
X139602271Y-122880714D01*
X139697509Y-122833095D01*
X139126080Y-124309285D02*
X139126080Y-123833095D01*
X139602271Y-123785476D01*
X139554652Y-123833095D01*
X139507033Y-123928333D01*
X139507033Y-124166428D01*
X139554652Y-124261666D01*
X139602271Y-124309285D01*
X139697509Y-124356904D01*
X139935604Y-124356904D01*
X140030842Y-124309285D01*
X140078461Y-124261666D01*
X140126080Y-124166428D01*
X140126080Y-123928333D01*
X140078461Y-123833095D01*
X140030842Y-123785476D01*
X140126080Y-102805314D02*
X139126080Y-102805314D01*
X139126080Y-103043409D01*
X139173700Y-103186266D01*
X139268938Y-103281504D01*
X139364176Y-103329123D01*
X139554652Y-103376742D01*
X139697509Y-103376742D01*
X139887985Y-103329123D01*
X139983223Y-103281504D01*
X140078461Y-103186266D01*
X140126080Y-103043409D01*
X140126080Y-102805314D01*
X139126080Y-104233885D02*
X139126080Y-104043409D01*
X139173700Y-103948171D01*
X139221319Y-103900552D01*
X139364176Y-103805314D01*
X139554652Y-103757695D01*
X139935604Y-103757695D01*
X140030842Y-103805314D01*
X140078461Y-103852933D01*
X140126080Y-103948171D01*
X140126080Y-104138647D01*
X140078461Y-104233885D01*
X140030842Y-104281504D01*
X139935604Y-104329123D01*
X139697509Y-104329123D01*
X139602271Y-104281504D01*
X139554652Y-104233885D01*
X139507033Y-104138647D01*
X139507033Y-103948171D01*
X139554652Y-103852933D01*
X139602271Y-103805314D01*
X139697509Y-103757695D01*
X139459414Y-105186266D02*
X140126080Y-105186266D01*
X139078461Y-104948171D02*
X139792747Y-104710076D01*
X139792747Y-105329123D01*
X140126080Y-64730714D02*
X139126080Y-64730714D01*
X139126080Y-64968809D01*
X139173700Y-65111666D01*
X139268938Y-65206904D01*
X139364176Y-65254523D01*
X139554652Y-65302142D01*
X139697509Y-65302142D01*
X139887985Y-65254523D01*
X139983223Y-65206904D01*
X140078461Y-65111666D01*
X140126080Y-64968809D01*
X140126080Y-64730714D01*
X139126080Y-66159285D02*
X139126080Y-65968809D01*
X139173700Y-65873571D01*
X139221319Y-65825952D01*
X139364176Y-65730714D01*
X139554652Y-65683095D01*
X139935604Y-65683095D01*
X140030842Y-65730714D01*
X140078461Y-65778333D01*
X140126080Y-65873571D01*
X140126080Y-66064047D01*
X140078461Y-66159285D01*
X140030842Y-66206904D01*
X139935604Y-66254523D01*
X139697509Y-66254523D01*
X139602271Y-66206904D01*
X139554652Y-66159285D01*
X139507033Y-66064047D01*
X139507033Y-65873571D01*
X139554652Y-65778333D01*
X139602271Y-65730714D01*
X139697509Y-65683095D01*
X139126080Y-66587857D02*
X139126080Y-67206904D01*
X139507033Y-66873571D01*
X139507033Y-67016428D01*
X139554652Y-67111666D01*
X139602271Y-67159285D01*
X139697509Y-67206904D01*
X139935604Y-67206904D01*
X140030842Y-67159285D01*
X140078461Y-67111666D01*
X140126080Y-67016428D01*
X140126080Y-66730714D01*
X140078461Y-66635476D01*
X140030842Y-66587857D01*
X140126080Y-45680714D02*
X139126080Y-45680714D01*
X139126080Y-45918809D01*
X139173700Y-46061666D01*
X139268938Y-46156904D01*
X139364176Y-46204523D01*
X139554652Y-46252142D01*
X139697509Y-46252142D01*
X139887985Y-46204523D01*
X139983223Y-46156904D01*
X140078461Y-46061666D01*
X140126080Y-45918809D01*
X140126080Y-45680714D01*
X139126080Y-47109285D02*
X139126080Y-46918809D01*
X139173700Y-46823571D01*
X139221319Y-46775952D01*
X139364176Y-46680714D01*
X139554652Y-46633095D01*
X139935604Y-46633095D01*
X140030842Y-46680714D01*
X140078461Y-46728333D01*
X140126080Y-46823571D01*
X140126080Y-47014047D01*
X140078461Y-47109285D01*
X140030842Y-47156904D01*
X139935604Y-47204523D01*
X139697509Y-47204523D01*
X139602271Y-47156904D01*
X139554652Y-47109285D01*
X139507033Y-47014047D01*
X139507033Y-46823571D01*
X139554652Y-46728333D01*
X139602271Y-46680714D01*
X139697509Y-46633095D01*
X139221319Y-47585476D02*
X139173700Y-47633095D01*
X139126080Y-47728333D01*
X139126080Y-47966428D01*
X139173700Y-48061666D01*
X139221319Y-48109285D01*
X139316557Y-48156904D01*
X139411795Y-48156904D01*
X139554652Y-48109285D01*
X140126080Y-47537857D01*
X140126080Y-48156904D01*
X121076080Y-121880714D02*
X120076080Y-121880714D01*
X120076080Y-122118809D01*
X120123700Y-122261666D01*
X120218938Y-122356904D01*
X120314176Y-122404523D01*
X120504652Y-122452142D01*
X120647509Y-122452142D01*
X120837985Y-122404523D01*
X120933223Y-122356904D01*
X121028461Y-122261666D01*
X121076080Y-122118809D01*
X121076080Y-121880714D01*
X120076080Y-123309285D02*
X120076080Y-123118809D01*
X120123700Y-123023571D01*
X120171319Y-122975952D01*
X120314176Y-122880714D01*
X120504652Y-122833095D01*
X120885604Y-122833095D01*
X120980842Y-122880714D01*
X121028461Y-122928333D01*
X121076080Y-123023571D01*
X121076080Y-123214047D01*
X121028461Y-123309285D01*
X120980842Y-123356904D01*
X120885604Y-123404523D01*
X120647509Y-123404523D01*
X120552271Y-123356904D01*
X120504652Y-123309285D01*
X120457033Y-123214047D01*
X120457033Y-123023571D01*
X120504652Y-122928333D01*
X120552271Y-122880714D01*
X120647509Y-122833095D01*
X121076080Y-124356904D02*
X121076080Y-123785476D01*
X121076080Y-124071190D02*
X120076080Y-124071190D01*
X120218938Y-123975952D01*
X120314176Y-123880714D01*
X120361795Y-123785476D01*
X99613080Y-102768214D02*
X98613080Y-102768214D01*
X98613080Y-103006309D01*
X98660700Y-103149166D01*
X98755938Y-103244404D01*
X98851176Y-103292023D01*
X99041652Y-103339642D01*
X99184509Y-103339642D01*
X99374985Y-103292023D01*
X99470223Y-103244404D01*
X99565461Y-103149166D01*
X99613080Y-103006309D01*
X99613080Y-102768214D01*
X98613080Y-104196785D02*
X98613080Y-104006309D01*
X98660700Y-103911071D01*
X98708319Y-103863452D01*
X98851176Y-103768214D01*
X99041652Y-103720595D01*
X99422604Y-103720595D01*
X99517842Y-103768214D01*
X99565461Y-103815833D01*
X99613080Y-103911071D01*
X99613080Y-104101547D01*
X99565461Y-104196785D01*
X99517842Y-104244404D01*
X99422604Y-104292023D01*
X99184509Y-104292023D01*
X99089271Y-104244404D01*
X99041652Y-104196785D01*
X98994033Y-104101547D01*
X98994033Y-103911071D01*
X99041652Y-103815833D01*
X99089271Y-103768214D01*
X99184509Y-103720595D01*
X98613080Y-104911071D02*
X98613080Y-105006309D01*
X98660700Y-105101547D01*
X98708319Y-105149166D01*
X98803557Y-105196785D01*
X98994033Y-105244404D01*
X99232128Y-105244404D01*
X99422604Y-105196785D01*
X99517842Y-105149166D01*
X99565461Y-105101547D01*
X99613080Y-105006309D01*
X99613080Y-104911071D01*
X99565461Y-104815833D01*
X99517842Y-104768214D01*
X99422604Y-104720595D01*
X99232128Y-104672976D01*
X98994033Y-104672976D01*
X98803557Y-104720595D01*
X98708319Y-104768214D01*
X98660700Y-104815833D01*
X98613080Y-104911071D01*
X104439080Y-83780714D02*
X103439080Y-83780714D01*
X103439080Y-84018809D01*
X103486700Y-84161666D01*
X103581938Y-84256904D01*
X103677176Y-84304523D01*
X103867652Y-84352142D01*
X104010509Y-84352142D01*
X104200985Y-84304523D01*
X104296223Y-84256904D01*
X104391461Y-84161666D01*
X104439080Y-84018809D01*
X104439080Y-83780714D01*
X103439080Y-85256904D02*
X103439080Y-84780714D01*
X103915271Y-84733095D01*
X103867652Y-84780714D01*
X103820033Y-84875952D01*
X103820033Y-85114047D01*
X103867652Y-85209285D01*
X103915271Y-85256904D01*
X104010509Y-85304523D01*
X104248604Y-85304523D01*
X104343842Y-85256904D01*
X104391461Y-85209285D01*
X104439080Y-85114047D01*
X104439080Y-84875952D01*
X104391461Y-84780714D01*
X104343842Y-84733095D01*
X104439080Y-85780714D02*
X104439080Y-85971190D01*
X104391461Y-86066428D01*
X104343842Y-86114047D01*
X104200985Y-86209285D01*
X104010509Y-86256904D01*
X103629557Y-86256904D01*
X103534319Y-86209285D01*
X103486700Y-86161666D01*
X103439080Y-86066428D01*
X103439080Y-85875952D01*
X103486700Y-85780714D01*
X103534319Y-85733095D01*
X103629557Y-85685476D01*
X103867652Y-85685476D01*
X103962890Y-85733095D01*
X104010509Y-85780714D01*
X104058128Y-85875952D01*
X104058128Y-86066428D01*
X104010509Y-86161666D01*
X103962890Y-86209285D01*
X103867652Y-86256904D01*
X111487580Y-64730714D02*
X110487580Y-64730714D01*
X110487580Y-64968809D01*
X110535200Y-65111666D01*
X110630438Y-65206904D01*
X110725676Y-65254523D01*
X110916152Y-65302142D01*
X111059009Y-65302142D01*
X111249485Y-65254523D01*
X111344723Y-65206904D01*
X111439961Y-65111666D01*
X111487580Y-64968809D01*
X111487580Y-64730714D01*
X110487580Y-66206904D02*
X110487580Y-65730714D01*
X110963771Y-65683095D01*
X110916152Y-65730714D01*
X110868533Y-65825952D01*
X110868533Y-66064047D01*
X110916152Y-66159285D01*
X110963771Y-66206904D01*
X111059009Y-66254523D01*
X111297104Y-66254523D01*
X111392342Y-66206904D01*
X111439961Y-66159285D01*
X111487580Y-66064047D01*
X111487580Y-65825952D01*
X111439961Y-65730714D01*
X111392342Y-65683095D01*
X110916152Y-66825952D02*
X110868533Y-66730714D01*
X110820914Y-66683095D01*
X110725676Y-66635476D01*
X110678057Y-66635476D01*
X110582819Y-66683095D01*
X110535200Y-66730714D01*
X110487580Y-66825952D01*
X110487580Y-67016428D01*
X110535200Y-67111666D01*
X110582819Y-67159285D01*
X110678057Y-67206904D01*
X110725676Y-67206904D01*
X110820914Y-67159285D01*
X110868533Y-67111666D01*
X110916152Y-67016428D01*
X110916152Y-66825952D01*
X110963771Y-66730714D01*
X111011390Y-66683095D01*
X111106628Y-66635476D01*
X111297104Y-66635476D01*
X111392342Y-66683095D01*
X111439961Y-66730714D01*
X111487580Y-66825952D01*
X111487580Y-67016428D01*
X111439961Y-67111666D01*
X111392342Y-67159285D01*
X111297104Y-67206904D01*
X111106628Y-67206904D01*
X111011390Y-67159285D01*
X110963771Y-67111666D01*
X110916152Y-67016428D01*
X106598080Y-45618214D02*
X105598080Y-45618214D01*
X105598080Y-45856309D01*
X105645700Y-45999166D01*
X105740938Y-46094404D01*
X105836176Y-46142023D01*
X106026652Y-46189642D01*
X106169509Y-46189642D01*
X106359985Y-46142023D01*
X106455223Y-46094404D01*
X106550461Y-45999166D01*
X106598080Y-45856309D01*
X106598080Y-45618214D01*
X105598080Y-47094404D02*
X105598080Y-46618214D01*
X106074271Y-46570595D01*
X106026652Y-46618214D01*
X105979033Y-46713452D01*
X105979033Y-46951547D01*
X106026652Y-47046785D01*
X106074271Y-47094404D01*
X106169509Y-47142023D01*
X106407604Y-47142023D01*
X106502842Y-47094404D01*
X106550461Y-47046785D01*
X106598080Y-46951547D01*
X106598080Y-46713452D01*
X106550461Y-46618214D01*
X106502842Y-46570595D01*
X105598080Y-47475357D02*
X105598080Y-48142023D01*
X106598080Y-47713452D01*
X87675080Y-64730714D02*
X86675080Y-64730714D01*
X86675080Y-64968809D01*
X86722700Y-65111666D01*
X86817938Y-65206904D01*
X86913176Y-65254523D01*
X87103652Y-65302142D01*
X87246509Y-65302142D01*
X87436985Y-65254523D01*
X87532223Y-65206904D01*
X87627461Y-65111666D01*
X87675080Y-64968809D01*
X87675080Y-64730714D01*
X86675080Y-66206904D02*
X86675080Y-65730714D01*
X87151271Y-65683095D01*
X87103652Y-65730714D01*
X87056033Y-65825952D01*
X87056033Y-66064047D01*
X87103652Y-66159285D01*
X87151271Y-66206904D01*
X87246509Y-66254523D01*
X87484604Y-66254523D01*
X87579842Y-66206904D01*
X87627461Y-66159285D01*
X87675080Y-66064047D01*
X87675080Y-65825952D01*
X87627461Y-65730714D01*
X87579842Y-65683095D01*
X86675080Y-67111666D02*
X86675080Y-66921190D01*
X86722700Y-66825952D01*
X86770319Y-66778333D01*
X86913176Y-66683095D01*
X87103652Y-66635476D01*
X87484604Y-66635476D01*
X87579842Y-66683095D01*
X87627461Y-66730714D01*
X87675080Y-66825952D01*
X87675080Y-67016428D01*
X87627461Y-67111666D01*
X87579842Y-67159285D01*
X87484604Y-67206904D01*
X87246509Y-67206904D01*
X87151271Y-67159285D01*
X87103652Y-67111666D01*
X87056033Y-67016428D01*
X87056033Y-66825952D01*
X87103652Y-66730714D01*
X87151271Y-66683095D01*
X87246509Y-66635476D01*
X78150080Y-45618214D02*
X77150080Y-45618214D01*
X77150080Y-45856309D01*
X77197700Y-45999166D01*
X77292938Y-46094404D01*
X77388176Y-46142023D01*
X77578652Y-46189642D01*
X77721509Y-46189642D01*
X77911985Y-46142023D01*
X78007223Y-46094404D01*
X78102461Y-45999166D01*
X78150080Y-45856309D01*
X78150080Y-45618214D01*
X77150080Y-47094404D02*
X77150080Y-46618214D01*
X77626271Y-46570595D01*
X77578652Y-46618214D01*
X77531033Y-46713452D01*
X77531033Y-46951547D01*
X77578652Y-47046785D01*
X77626271Y-47094404D01*
X77721509Y-47142023D01*
X77959604Y-47142023D01*
X78054842Y-47094404D01*
X78102461Y-47046785D01*
X78150080Y-46951547D01*
X78150080Y-46713452D01*
X78102461Y-46618214D01*
X78054842Y-46570595D01*
X77150080Y-48046785D02*
X77150080Y-47570595D01*
X77626271Y-47522976D01*
X77578652Y-47570595D01*
X77531033Y-47665833D01*
X77531033Y-47903928D01*
X77578652Y-47999166D01*
X77626271Y-48046785D01*
X77721509Y-48094404D01*
X77959604Y-48094404D01*
X78054842Y-48046785D01*
X78102461Y-47999166D01*
X78150080Y-47903928D01*
X78150080Y-47665833D01*
X78102461Y-47570595D01*
X78054842Y-47522976D01*
X90088080Y-121880714D02*
X89088080Y-121880714D01*
X89088080Y-122118809D01*
X89135700Y-122261666D01*
X89230938Y-122356904D01*
X89326176Y-122404523D01*
X89516652Y-122452142D01*
X89659509Y-122452142D01*
X89849985Y-122404523D01*
X89945223Y-122356904D01*
X90040461Y-122261666D01*
X90088080Y-122118809D01*
X90088080Y-121880714D01*
X89088080Y-123356904D02*
X89088080Y-122880714D01*
X89564271Y-122833095D01*
X89516652Y-122880714D01*
X89469033Y-122975952D01*
X89469033Y-123214047D01*
X89516652Y-123309285D01*
X89564271Y-123356904D01*
X89659509Y-123404523D01*
X89897604Y-123404523D01*
X89992842Y-123356904D01*
X90040461Y-123309285D01*
X90088080Y-123214047D01*
X90088080Y-122975952D01*
X90040461Y-122880714D01*
X89992842Y-122833095D01*
X89421414Y-124261666D02*
X90088080Y-124261666D01*
X89040461Y-124023571D02*
X89754747Y-123785476D01*
X89754747Y-124404523D01*
X73324080Y-83780714D02*
X72324080Y-83780714D01*
X72324080Y-84018809D01*
X72371700Y-84161666D01*
X72466938Y-84256904D01*
X72562176Y-84304523D01*
X72752652Y-84352142D01*
X72895509Y-84352142D01*
X73085985Y-84304523D01*
X73181223Y-84256904D01*
X73276461Y-84161666D01*
X73324080Y-84018809D01*
X73324080Y-83780714D01*
X72324080Y-85256904D02*
X72324080Y-84780714D01*
X72800271Y-84733095D01*
X72752652Y-84780714D01*
X72705033Y-84875952D01*
X72705033Y-85114047D01*
X72752652Y-85209285D01*
X72800271Y-85256904D01*
X72895509Y-85304523D01*
X73133604Y-85304523D01*
X73228842Y-85256904D01*
X73276461Y-85209285D01*
X73324080Y-85114047D01*
X73324080Y-84875952D01*
X73276461Y-84780714D01*
X73228842Y-84733095D01*
X72324080Y-85637857D02*
X72324080Y-86256904D01*
X72705033Y-85923571D01*
X72705033Y-86066428D01*
X72752652Y-86161666D01*
X72800271Y-86209285D01*
X72895509Y-86256904D01*
X73133604Y-86256904D01*
X73228842Y-86209285D01*
X73276461Y-86161666D01*
X73324080Y-86066428D01*
X73324080Y-85780714D01*
X73276461Y-85685476D01*
X73228842Y-85637857D01*
X68625080Y-64730714D02*
X67625080Y-64730714D01*
X67625080Y-64968809D01*
X67672700Y-65111666D01*
X67767938Y-65206904D01*
X67863176Y-65254523D01*
X68053652Y-65302142D01*
X68196509Y-65302142D01*
X68386985Y-65254523D01*
X68482223Y-65206904D01*
X68577461Y-65111666D01*
X68625080Y-64968809D01*
X68625080Y-64730714D01*
X67625080Y-66206904D02*
X67625080Y-65730714D01*
X68101271Y-65683095D01*
X68053652Y-65730714D01*
X68006033Y-65825952D01*
X68006033Y-66064047D01*
X68053652Y-66159285D01*
X68101271Y-66206904D01*
X68196509Y-66254523D01*
X68434604Y-66254523D01*
X68529842Y-66206904D01*
X68577461Y-66159285D01*
X68625080Y-66064047D01*
X68625080Y-65825952D01*
X68577461Y-65730714D01*
X68529842Y-65683095D01*
X67720319Y-66635476D02*
X67672700Y-66683095D01*
X67625080Y-66778333D01*
X67625080Y-67016428D01*
X67672700Y-67111666D01*
X67720319Y-67159285D01*
X67815557Y-67206904D01*
X67910795Y-67206904D01*
X68053652Y-67159285D01*
X68625080Y-66587857D01*
X68625080Y-67206904D01*
X59100080Y-45618214D02*
X58100080Y-45618214D01*
X58100080Y-45856309D01*
X58147700Y-45999166D01*
X58242938Y-46094404D01*
X58338176Y-46142023D01*
X58528652Y-46189642D01*
X58671509Y-46189642D01*
X58861985Y-46142023D01*
X58957223Y-46094404D01*
X59052461Y-45999166D01*
X59100080Y-45856309D01*
X59100080Y-45618214D01*
X58100080Y-47094404D02*
X58100080Y-46618214D01*
X58576271Y-46570595D01*
X58528652Y-46618214D01*
X58481033Y-46713452D01*
X58481033Y-46951547D01*
X58528652Y-47046785D01*
X58576271Y-47094404D01*
X58671509Y-47142023D01*
X58909604Y-47142023D01*
X59004842Y-47094404D01*
X59052461Y-47046785D01*
X59100080Y-46951547D01*
X59100080Y-46713452D01*
X59052461Y-46618214D01*
X59004842Y-46570595D01*
X59100080Y-48094404D02*
X59100080Y-47522976D01*
X59100080Y-47808690D02*
X58100080Y-47808690D01*
X58242938Y-47713452D01*
X58338176Y-47618214D01*
X58385795Y-47522976D01*
X66212080Y-121880714D02*
X65212080Y-121880714D01*
X65212080Y-122118809D01*
X65259700Y-122261666D01*
X65354938Y-122356904D01*
X65450176Y-122404523D01*
X65640652Y-122452142D01*
X65783509Y-122452142D01*
X65973985Y-122404523D01*
X66069223Y-122356904D01*
X66164461Y-122261666D01*
X66212080Y-122118809D01*
X66212080Y-121880714D01*
X65212080Y-123356904D02*
X65212080Y-122880714D01*
X65688271Y-122833095D01*
X65640652Y-122880714D01*
X65593033Y-122975952D01*
X65593033Y-123214047D01*
X65640652Y-123309285D01*
X65688271Y-123356904D01*
X65783509Y-123404523D01*
X66021604Y-123404523D01*
X66116842Y-123356904D01*
X66164461Y-123309285D01*
X66212080Y-123214047D01*
X66212080Y-122975952D01*
X66164461Y-122880714D01*
X66116842Y-122833095D01*
X65212080Y-124023571D02*
X65212080Y-124118809D01*
X65259700Y-124214047D01*
X65307319Y-124261666D01*
X65402557Y-124309285D01*
X65593033Y-124356904D01*
X65831128Y-124356904D01*
X66021604Y-124309285D01*
X66116842Y-124261666D01*
X66164461Y-124214047D01*
X66212080Y-124118809D01*
X66212080Y-124023571D01*
X66164461Y-123928333D01*
X66116842Y-123880714D01*
X66021604Y-123833095D01*
X65831128Y-123785476D01*
X65593033Y-123785476D01*
X65402557Y-123833095D01*
X65307319Y-123880714D01*
X65259700Y-123928333D01*
X65212080Y-124023571D01*
X63799080Y-102831714D02*
X62799080Y-102831714D01*
X62799080Y-103069809D01*
X62846700Y-103212666D01*
X62941938Y-103307904D01*
X63037176Y-103355523D01*
X63227652Y-103403142D01*
X63370509Y-103403142D01*
X63560985Y-103355523D01*
X63656223Y-103307904D01*
X63751461Y-103212666D01*
X63799080Y-103069809D01*
X63799080Y-102831714D01*
X63132414Y-104260285D02*
X63799080Y-104260285D01*
X62751461Y-104022190D02*
X63465747Y-103784095D01*
X63465747Y-104403142D01*
X63799080Y-104831714D02*
X63799080Y-105022190D01*
X63751461Y-105117428D01*
X63703842Y-105165047D01*
X63560985Y-105260285D01*
X63370509Y-105307904D01*
X62989557Y-105307904D01*
X62894319Y-105260285D01*
X62846700Y-105212666D01*
X62799080Y-105117428D01*
X62799080Y-104926952D01*
X62846700Y-104831714D01*
X62894319Y-104784095D01*
X62989557Y-104736476D01*
X63227652Y-104736476D01*
X63322890Y-104784095D01*
X63370509Y-104831714D01*
X63418128Y-104926952D01*
X63418128Y-105117428D01*
X63370509Y-105212666D01*
X63322890Y-105260285D01*
X63227652Y-105307904D01*
X54274080Y-83780714D02*
X53274080Y-83780714D01*
X53274080Y-84018809D01*
X53321700Y-84161666D01*
X53416938Y-84256904D01*
X53512176Y-84304523D01*
X53702652Y-84352142D01*
X53845509Y-84352142D01*
X54035985Y-84304523D01*
X54131223Y-84256904D01*
X54226461Y-84161666D01*
X54274080Y-84018809D01*
X54274080Y-83780714D01*
X53607414Y-85209285D02*
X54274080Y-85209285D01*
X53226461Y-84971190D02*
X53940747Y-84733095D01*
X53940747Y-85352142D01*
X53702652Y-85875952D02*
X53655033Y-85780714D01*
X53607414Y-85733095D01*
X53512176Y-85685476D01*
X53464557Y-85685476D01*
X53369319Y-85733095D01*
X53321700Y-85780714D01*
X53274080Y-85875952D01*
X53274080Y-86066428D01*
X53321700Y-86161666D01*
X53369319Y-86209285D01*
X53464557Y-86256904D01*
X53512176Y-86256904D01*
X53607414Y-86209285D01*
X53655033Y-86161666D01*
X53702652Y-86066428D01*
X53702652Y-85875952D01*
X53750271Y-85780714D01*
X53797890Y-85733095D01*
X53893128Y-85685476D01*
X54083604Y-85685476D01*
X54178842Y-85733095D01*
X54226461Y-85780714D01*
X54274080Y-85875952D01*
X54274080Y-86066428D01*
X54226461Y-86161666D01*
X54178842Y-86209285D01*
X54083604Y-86256904D01*
X53893128Y-86256904D01*
X53797890Y-86209285D01*
X53750271Y-86161666D01*
X53702652Y-86066428D01*
X49575080Y-64730714D02*
X48575080Y-64730714D01*
X48575080Y-64968809D01*
X48622700Y-65111666D01*
X48717938Y-65206904D01*
X48813176Y-65254523D01*
X49003652Y-65302142D01*
X49146509Y-65302142D01*
X49336985Y-65254523D01*
X49432223Y-65206904D01*
X49527461Y-65111666D01*
X49575080Y-64968809D01*
X49575080Y-64730714D01*
X48908414Y-66159285D02*
X49575080Y-66159285D01*
X48527461Y-65921190D02*
X49241747Y-65683095D01*
X49241747Y-66302142D01*
X48575080Y-66587857D02*
X48575080Y-67254523D01*
X49575080Y-66825952D01*
X40050080Y-45617214D02*
X39050080Y-45617214D01*
X39050080Y-45855309D01*
X39097700Y-45998166D01*
X39192938Y-46093404D01*
X39288176Y-46141023D01*
X39478652Y-46188642D01*
X39621509Y-46188642D01*
X39811985Y-46141023D01*
X39907223Y-46093404D01*
X40002461Y-45998166D01*
X40050080Y-45855309D01*
X40050080Y-45617214D01*
X39383414Y-47045785D02*
X40050080Y-47045785D01*
X39002461Y-46807690D02*
X39716747Y-46569595D01*
X39716747Y-47188642D01*
X39050080Y-47998166D02*
X39050080Y-47807690D01*
X39097700Y-47712452D01*
X39145319Y-47664833D01*
X39288176Y-47569595D01*
X39478652Y-47521976D01*
X39859604Y-47521976D01*
X39954842Y-47569595D01*
X40002461Y-47617214D01*
X40050080Y-47712452D01*
X40050080Y-47902928D01*
X40002461Y-47998166D01*
X39954842Y-48045785D01*
X39859604Y-48093404D01*
X39621509Y-48093404D01*
X39526271Y-48045785D01*
X39478652Y-47998166D01*
X39431033Y-47902928D01*
X39431033Y-47712452D01*
X39478652Y-47617214D01*
X39526271Y-47569595D01*
X39621509Y-47521976D01*
X42399580Y-121880714D02*
X41399580Y-121880714D01*
X41399580Y-122118809D01*
X41447200Y-122261666D01*
X41542438Y-122356904D01*
X41637676Y-122404523D01*
X41828152Y-122452142D01*
X41971009Y-122452142D01*
X42161485Y-122404523D01*
X42256723Y-122356904D01*
X42351961Y-122261666D01*
X42399580Y-122118809D01*
X42399580Y-121880714D01*
X41732914Y-123309285D02*
X42399580Y-123309285D01*
X41351961Y-123071190D02*
X42066247Y-122833095D01*
X42066247Y-123452142D01*
X41399580Y-124309285D02*
X41399580Y-123833095D01*
X41875771Y-123785476D01*
X41828152Y-123833095D01*
X41780533Y-123928333D01*
X41780533Y-124166428D01*
X41828152Y-124261666D01*
X41875771Y-124309285D01*
X41971009Y-124356904D01*
X42209104Y-124356904D01*
X42304342Y-124309285D01*
X42351961Y-124261666D01*
X42399580Y-124166428D01*
X42399580Y-123928333D01*
X42351961Y-123833095D01*
X42304342Y-123785476D01*
X44749080Y-102831714D02*
X43749080Y-102831714D01*
X43749080Y-103069809D01*
X43796700Y-103212666D01*
X43891938Y-103307904D01*
X43987176Y-103355523D01*
X44177652Y-103403142D01*
X44320509Y-103403142D01*
X44510985Y-103355523D01*
X44606223Y-103307904D01*
X44701461Y-103212666D01*
X44749080Y-103069809D01*
X44749080Y-102831714D01*
X44082414Y-104260285D02*
X44749080Y-104260285D01*
X43701461Y-104022190D02*
X44415747Y-103784095D01*
X44415747Y-104403142D01*
X44082414Y-105212666D02*
X44749080Y-105212666D01*
X43701461Y-104974571D02*
X44415747Y-104736476D01*
X44415747Y-105355523D01*
X35224080Y-83780714D02*
X34224080Y-83780714D01*
X34224080Y-84018809D01*
X34271700Y-84161666D01*
X34366938Y-84256904D01*
X34462176Y-84304523D01*
X34652652Y-84352142D01*
X34795509Y-84352142D01*
X34985985Y-84304523D01*
X35081223Y-84256904D01*
X35176461Y-84161666D01*
X35224080Y-84018809D01*
X35224080Y-83780714D01*
X34557414Y-85209285D02*
X35224080Y-85209285D01*
X34176461Y-84971190D02*
X34890747Y-84733095D01*
X34890747Y-85352142D01*
X34224080Y-85637857D02*
X34224080Y-86256904D01*
X34605033Y-85923571D01*
X34605033Y-86066428D01*
X34652652Y-86161666D01*
X34700271Y-86209285D01*
X34795509Y-86256904D01*
X35033604Y-86256904D01*
X35128842Y-86209285D01*
X35176461Y-86161666D01*
X35224080Y-86066428D01*
X35224080Y-85780714D01*
X35176461Y-85685476D01*
X35128842Y-85637857D01*
X30525080Y-64730714D02*
X29525080Y-64730714D01*
X29525080Y-64968809D01*
X29572700Y-65111666D01*
X29667938Y-65206904D01*
X29763176Y-65254523D01*
X29953652Y-65302142D01*
X30096509Y-65302142D01*
X30286985Y-65254523D01*
X30382223Y-65206904D01*
X30477461Y-65111666D01*
X30525080Y-64968809D01*
X30525080Y-64730714D01*
X29858414Y-66159285D02*
X30525080Y-66159285D01*
X29477461Y-65921190D02*
X30191747Y-65683095D01*
X30191747Y-66302142D01*
X29620319Y-66635476D02*
X29572700Y-66683095D01*
X29525080Y-66778333D01*
X29525080Y-67016428D01*
X29572700Y-67111666D01*
X29620319Y-67159285D01*
X29715557Y-67206904D01*
X29810795Y-67206904D01*
X29953652Y-67159285D01*
X30525080Y-66587857D01*
X30525080Y-67206904D01*
X21000080Y-45617214D02*
X20000080Y-45617214D01*
X20000080Y-45855309D01*
X20047700Y-45998166D01*
X20142938Y-46093404D01*
X20238176Y-46141023D01*
X20428652Y-46188642D01*
X20571509Y-46188642D01*
X20761985Y-46141023D01*
X20857223Y-46093404D01*
X20952461Y-45998166D01*
X21000080Y-45855309D01*
X21000080Y-45617214D01*
X20333414Y-47045785D02*
X21000080Y-47045785D01*
X19952461Y-46807690D02*
X20666747Y-46569595D01*
X20666747Y-47188642D01*
X21000080Y-48093404D02*
X21000080Y-47521976D01*
X21000080Y-47807690D02*
X20000080Y-47807690D01*
X20142938Y-47712452D01*
X20238176Y-47617214D01*
X20285795Y-47521976D01*
X25699080Y-102830714D02*
X24699080Y-102830714D01*
X24699080Y-103068809D01*
X24746700Y-103211666D01*
X24841938Y-103306904D01*
X24937176Y-103354523D01*
X25127652Y-103402142D01*
X25270509Y-103402142D01*
X25460985Y-103354523D01*
X25556223Y-103306904D01*
X25651461Y-103211666D01*
X25699080Y-103068809D01*
X25699080Y-102830714D01*
X25032414Y-104259285D02*
X25699080Y-104259285D01*
X24651461Y-104021190D02*
X25365747Y-103783095D01*
X25365747Y-104402142D01*
X24699080Y-104973571D02*
X24699080Y-105068809D01*
X24746700Y-105164047D01*
X24794319Y-105211666D01*
X24889557Y-105259285D01*
X25080033Y-105306904D01*
X25318128Y-105306904D01*
X25508604Y-105259285D01*
X25603842Y-105211666D01*
X25651461Y-105164047D01*
X25699080Y-105068809D01*
X25699080Y-104973571D01*
X25651461Y-104878333D01*
X25603842Y-104830714D01*
X25508604Y-104783095D01*
X25318128Y-104735476D01*
X25080033Y-104735476D01*
X24889557Y-104783095D01*
X24794319Y-104830714D01*
X24746700Y-104878333D01*
X24699080Y-104973571D01*
X16174080Y-83780714D02*
X15174080Y-83780714D01*
X15174080Y-84018809D01*
X15221700Y-84161666D01*
X15316938Y-84256904D01*
X15412176Y-84304523D01*
X15602652Y-84352142D01*
X15745509Y-84352142D01*
X15935985Y-84304523D01*
X16031223Y-84256904D01*
X16126461Y-84161666D01*
X16174080Y-84018809D01*
X16174080Y-83780714D01*
X15174080Y-84685476D02*
X15174080Y-85304523D01*
X15555033Y-84971190D01*
X15555033Y-85114047D01*
X15602652Y-85209285D01*
X15650271Y-85256904D01*
X15745509Y-85304523D01*
X15983604Y-85304523D01*
X16078842Y-85256904D01*
X16126461Y-85209285D01*
X16174080Y-85114047D01*
X16174080Y-84828333D01*
X16126461Y-84733095D01*
X16078842Y-84685476D01*
X16174080Y-85780714D02*
X16174080Y-85971190D01*
X16126461Y-86066428D01*
X16078842Y-86114047D01*
X15935985Y-86209285D01*
X15745509Y-86256904D01*
X15364557Y-86256904D01*
X15269319Y-86209285D01*
X15221700Y-86161666D01*
X15174080Y-86066428D01*
X15174080Y-85875952D01*
X15221700Y-85780714D01*
X15269319Y-85733095D01*
X15364557Y-85685476D01*
X15602652Y-85685476D01*
X15697890Y-85733095D01*
X15745509Y-85780714D01*
X15793128Y-85875952D01*
X15793128Y-86066428D01*
X15745509Y-86161666D01*
X15697890Y-86209285D01*
X15602652Y-86256904D01*
X11475080Y-64730714D02*
X10475080Y-64730714D01*
X10475080Y-64968809D01*
X10522700Y-65111666D01*
X10617938Y-65206904D01*
X10713176Y-65254523D01*
X10903652Y-65302142D01*
X11046509Y-65302142D01*
X11236985Y-65254523D01*
X11332223Y-65206904D01*
X11427461Y-65111666D01*
X11475080Y-64968809D01*
X11475080Y-64730714D01*
X10475080Y-65635476D02*
X10475080Y-66254523D01*
X10856033Y-65921190D01*
X10856033Y-66064047D01*
X10903652Y-66159285D01*
X10951271Y-66206904D01*
X11046509Y-66254523D01*
X11284604Y-66254523D01*
X11379842Y-66206904D01*
X11427461Y-66159285D01*
X11475080Y-66064047D01*
X11475080Y-65778333D01*
X11427461Y-65683095D01*
X11379842Y-65635476D01*
X10903652Y-66825952D02*
X10856033Y-66730714D01*
X10808414Y-66683095D01*
X10713176Y-66635476D01*
X10665557Y-66635476D01*
X10570319Y-66683095D01*
X10522700Y-66730714D01*
X10475080Y-66825952D01*
X10475080Y-67016428D01*
X10522700Y-67111666D01*
X10570319Y-67159285D01*
X10665557Y-67206904D01*
X10713176Y-67206904D01*
X10808414Y-67159285D01*
X10856033Y-67111666D01*
X10903652Y-67016428D01*
X10903652Y-66825952D01*
X10951271Y-66730714D01*
X10998890Y-66683095D01*
X11094128Y-66635476D01*
X11284604Y-66635476D01*
X11379842Y-66683095D01*
X11427461Y-66730714D01*
X11475080Y-66825952D01*
X11475080Y-67016428D01*
X11427461Y-67111666D01*
X11379842Y-67159285D01*
X11284604Y-67206904D01*
X11094128Y-67206904D01*
X10998890Y-67159285D01*
X10951271Y-67111666D01*
X10903652Y-67016428D01*
X1950080Y-45617214D02*
X950080Y-45617214D01*
X950080Y-45855309D01*
X997700Y-45998166D01*
X1092938Y-46093404D01*
X1188176Y-46141023D01*
X1378652Y-46188642D01*
X1521509Y-46188642D01*
X1711985Y-46141023D01*
X1807223Y-46093404D01*
X1902461Y-45998166D01*
X1950080Y-45855309D01*
X1950080Y-45617214D01*
X950080Y-46521976D02*
X950080Y-47141023D01*
X1331033Y-46807690D01*
X1331033Y-46950547D01*
X1378652Y-47045785D01*
X1426271Y-47093404D01*
X1521509Y-47141023D01*
X1759604Y-47141023D01*
X1854842Y-47093404D01*
X1902461Y-47045785D01*
X1950080Y-46950547D01*
X1950080Y-46664833D01*
X1902461Y-46569595D01*
X1854842Y-46521976D01*
X950080Y-47474357D02*
X950080Y-48141023D01*
X1950080Y-47712452D01*
X6649080Y-102831714D02*
X5649080Y-102831714D01*
X5649080Y-103069809D01*
X5696700Y-103212666D01*
X5791938Y-103307904D01*
X5887176Y-103355523D01*
X6077652Y-103403142D01*
X6220509Y-103403142D01*
X6410985Y-103355523D01*
X6506223Y-103307904D01*
X6601461Y-103212666D01*
X6649080Y-103069809D01*
X6649080Y-102831714D01*
X5649080Y-103736476D02*
X5649080Y-104355523D01*
X6030033Y-104022190D01*
X6030033Y-104165047D01*
X6077652Y-104260285D01*
X6125271Y-104307904D01*
X6220509Y-104355523D01*
X6458604Y-104355523D01*
X6553842Y-104307904D01*
X6601461Y-104260285D01*
X6649080Y-104165047D01*
X6649080Y-103879333D01*
X6601461Y-103784095D01*
X6553842Y-103736476D01*
X5649080Y-105212666D02*
X5649080Y-105022190D01*
X5696700Y-104926952D01*
X5744319Y-104879333D01*
X5887176Y-104784095D01*
X6077652Y-104736476D01*
X6458604Y-104736476D01*
X6553842Y-104784095D01*
X6601461Y-104831714D01*
X6649080Y-104926952D01*
X6649080Y-105117428D01*
X6601461Y-105212666D01*
X6553842Y-105260285D01*
X6458604Y-105307904D01*
X6220509Y-105307904D01*
X6125271Y-105260285D01*
X6077652Y-105212666D01*
X6030033Y-105117428D01*
X6030033Y-104926952D01*
X6077652Y-104831714D01*
X6125271Y-104784095D01*
X6220509Y-104736476D01*
X-2875919Y-83780714D02*
X-3875919Y-83780714D01*
X-3875919Y-84018809D01*
X-3828300Y-84161666D01*
X-3733061Y-84256904D01*
X-3637823Y-84304523D01*
X-3447347Y-84352142D01*
X-3304490Y-84352142D01*
X-3114014Y-84304523D01*
X-3018776Y-84256904D01*
X-2923538Y-84161666D01*
X-2875919Y-84018809D01*
X-2875919Y-83780714D01*
X-3875919Y-84685476D02*
X-3875919Y-85304523D01*
X-3494966Y-84971190D01*
X-3494966Y-85114047D01*
X-3447347Y-85209285D01*
X-3399728Y-85256904D01*
X-3304490Y-85304523D01*
X-3066395Y-85304523D01*
X-2971157Y-85256904D01*
X-2923538Y-85209285D01*
X-2875919Y-85114047D01*
X-2875919Y-84828333D01*
X-2923538Y-84733095D01*
X-2971157Y-84685476D01*
X-3875919Y-86209285D02*
X-3875919Y-85733095D01*
X-3399728Y-85685476D01*
X-3447347Y-85733095D01*
X-3494966Y-85828333D01*
X-3494966Y-86066428D01*
X-3447347Y-86161666D01*
X-3399728Y-86209285D01*
X-3304490Y-86256904D01*
X-3066395Y-86256904D01*
X-2971157Y-86209285D01*
X-2923538Y-86161666D01*
X-2875919Y-86066428D01*
X-2875919Y-85828333D01*
X-2923538Y-85733095D01*
X-2971157Y-85685476D01*
X-7574919Y-64730714D02*
X-8574919Y-64730714D01*
X-8574919Y-64968809D01*
X-8527300Y-65111666D01*
X-8432061Y-65206904D01*
X-8336823Y-65254523D01*
X-8146347Y-65302142D01*
X-8003490Y-65302142D01*
X-7813014Y-65254523D01*
X-7717776Y-65206904D01*
X-7622538Y-65111666D01*
X-7574919Y-64968809D01*
X-7574919Y-64730714D01*
X-8574919Y-65635476D02*
X-8574919Y-66254523D01*
X-8193966Y-65921190D01*
X-8193966Y-66064047D01*
X-8146347Y-66159285D01*
X-8098728Y-66206904D01*
X-8003490Y-66254523D01*
X-7765395Y-66254523D01*
X-7670157Y-66206904D01*
X-7622538Y-66159285D01*
X-7574919Y-66064047D01*
X-7574919Y-65778333D01*
X-7622538Y-65683095D01*
X-7670157Y-65635476D01*
X-8241585Y-67111666D02*
X-7574919Y-67111666D01*
X-8622538Y-66873571D02*
X-7908252Y-66635476D01*
X-7908252Y-67254523D01*
X-17099919Y-45680714D02*
X-18099919Y-45680714D01*
X-18099919Y-45918809D01*
X-18052300Y-46061666D01*
X-17957061Y-46156904D01*
X-17861823Y-46204523D01*
X-17671347Y-46252142D01*
X-17528490Y-46252142D01*
X-17338014Y-46204523D01*
X-17242776Y-46156904D01*
X-17147538Y-46061666D01*
X-17099919Y-45918809D01*
X-17099919Y-45680714D01*
X-18099919Y-46585476D02*
X-18099919Y-47204523D01*
X-17718966Y-46871190D01*
X-17718966Y-47014047D01*
X-17671347Y-47109285D01*
X-17623728Y-47156904D01*
X-17528490Y-47204523D01*
X-17290395Y-47204523D01*
X-17195157Y-47156904D01*
X-17147538Y-47109285D01*
X-17099919Y-47014047D01*
X-17099919Y-46728333D01*
X-17147538Y-46633095D01*
X-17195157Y-46585476D01*
X-18099919Y-47537857D02*
X-18099919Y-48156904D01*
X-17718966Y-47823571D01*
X-17718966Y-47966428D01*
X-17671347Y-48061666D01*
X-17623728Y-48109285D01*
X-17528490Y-48156904D01*
X-17290395Y-48156904D01*
X-17195157Y-48109285D01*
X-17147538Y-48061666D01*
X-17099919Y-47966428D01*
X-17099919Y-47680714D01*
X-17147538Y-47585476D01*
X-17195157Y-47537857D01*
X-12400919Y-102831714D02*
X-13400919Y-102831714D01*
X-13400919Y-103069809D01*
X-13353300Y-103212666D01*
X-13258061Y-103307904D01*
X-13162823Y-103355523D01*
X-12972347Y-103403142D01*
X-12829490Y-103403142D01*
X-12639014Y-103355523D01*
X-12543776Y-103307904D01*
X-12448538Y-103212666D01*
X-12400919Y-103069809D01*
X-12400919Y-102831714D01*
X-13400919Y-103736476D02*
X-13400919Y-104355523D01*
X-13019966Y-104022190D01*
X-13019966Y-104165047D01*
X-12972347Y-104260285D01*
X-12924728Y-104307904D01*
X-12829490Y-104355523D01*
X-12591395Y-104355523D01*
X-12496157Y-104307904D01*
X-12448538Y-104260285D01*
X-12400919Y-104165047D01*
X-12400919Y-103879333D01*
X-12448538Y-103784095D01*
X-12496157Y-103736476D01*
X-13305680Y-104736476D02*
X-13353300Y-104784095D01*
X-13400919Y-104879333D01*
X-13400919Y-105117428D01*
X-13353300Y-105212666D01*
X-13305680Y-105260285D01*
X-13210442Y-105307904D01*
X-13115204Y-105307904D01*
X-12972347Y-105260285D01*
X-12400919Y-104688857D01*
X-12400919Y-105307904D01*
X-21925919Y-83780714D02*
X-22925919Y-83780714D01*
X-22925919Y-84018809D01*
X-22878300Y-84161666D01*
X-22783061Y-84256904D01*
X-22687823Y-84304523D01*
X-22497347Y-84352142D01*
X-22354490Y-84352142D01*
X-22164014Y-84304523D01*
X-22068776Y-84256904D01*
X-21973538Y-84161666D01*
X-21925919Y-84018809D01*
X-21925919Y-83780714D01*
X-22925919Y-84685476D02*
X-22925919Y-85304523D01*
X-22544966Y-84971190D01*
X-22544966Y-85114047D01*
X-22497347Y-85209285D01*
X-22449728Y-85256904D01*
X-22354490Y-85304523D01*
X-22116395Y-85304523D01*
X-22021157Y-85256904D01*
X-21973538Y-85209285D01*
X-21925919Y-85114047D01*
X-21925919Y-84828333D01*
X-21973538Y-84733095D01*
X-22021157Y-84685476D01*
X-21925919Y-86256904D02*
X-21925919Y-85685476D01*
X-21925919Y-85971190D02*
X-22925919Y-85971190D01*
X-22783061Y-85875952D01*
X-22687823Y-85780714D01*
X-22640204Y-85685476D01*
X-26624919Y-64730714D02*
X-27624919Y-64730714D01*
X-27624919Y-64968809D01*
X-27577300Y-65111666D01*
X-27482061Y-65206904D01*
X-27386823Y-65254523D01*
X-27196347Y-65302142D01*
X-27053490Y-65302142D01*
X-26863014Y-65254523D01*
X-26767776Y-65206904D01*
X-26672538Y-65111666D01*
X-26624919Y-64968809D01*
X-26624919Y-64730714D01*
X-27624919Y-65635476D02*
X-27624919Y-66254523D01*
X-27243966Y-65921190D01*
X-27243966Y-66064047D01*
X-27196347Y-66159285D01*
X-27148728Y-66206904D01*
X-27053490Y-66254523D01*
X-26815395Y-66254523D01*
X-26720157Y-66206904D01*
X-26672538Y-66159285D01*
X-26624919Y-66064047D01*
X-26624919Y-65778333D01*
X-26672538Y-65683095D01*
X-26720157Y-65635476D01*
X-27624919Y-66873571D02*
X-27624919Y-66968809D01*
X-27577300Y-67064047D01*
X-27529680Y-67111666D01*
X-27434442Y-67159285D01*
X-27243966Y-67206904D01*
X-27005871Y-67206904D01*
X-26815395Y-67159285D01*
X-26720157Y-67111666D01*
X-26672538Y-67064047D01*
X-26624919Y-66968809D01*
X-26624919Y-66873571D01*
X-26672538Y-66778333D01*
X-26720157Y-66730714D01*
X-26815395Y-66683095D01*
X-27005871Y-66635476D01*
X-27243966Y-66635476D01*
X-27434442Y-66683095D01*
X-27529680Y-66730714D01*
X-27577300Y-66778333D01*
X-27624919Y-66873571D01*
X-36149919Y-45680714D02*
X-37149919Y-45680714D01*
X-37149919Y-45918809D01*
X-37102300Y-46061666D01*
X-37007061Y-46156904D01*
X-36911823Y-46204523D01*
X-36721347Y-46252142D01*
X-36578490Y-46252142D01*
X-36388014Y-46204523D01*
X-36292776Y-46156904D01*
X-36197538Y-46061666D01*
X-36149919Y-45918809D01*
X-36149919Y-45680714D01*
X-37054680Y-46633095D02*
X-37102300Y-46680714D01*
X-37149919Y-46775952D01*
X-37149919Y-47014047D01*
X-37102300Y-47109285D01*
X-37054680Y-47156904D01*
X-36959442Y-47204523D01*
X-36864204Y-47204523D01*
X-36721347Y-47156904D01*
X-36149919Y-46585476D01*
X-36149919Y-47204523D01*
X-36149919Y-47680714D02*
X-36149919Y-47871190D01*
X-36197538Y-47966428D01*
X-36245157Y-48014047D01*
X-36388014Y-48109285D01*
X-36578490Y-48156904D01*
X-36959442Y-48156904D01*
X-37054680Y-48109285D01*
X-37102300Y-48061666D01*
X-37149919Y-47966428D01*
X-37149919Y-47775952D01*
X-37102300Y-47680714D01*
X-37054680Y-47633095D01*
X-36959442Y-47585476D01*
X-36721347Y-47585476D01*
X-36626109Y-47633095D01*
X-36578490Y-47680714D01*
X-36530871Y-47775952D01*
X-36530871Y-47966428D01*
X-36578490Y-48061666D01*
X-36626109Y-48109285D01*
X-36721347Y-48156904D01*
X-28974419Y-121882714D02*
X-29974419Y-121882714D01*
X-29974419Y-122120809D01*
X-29926800Y-122263666D01*
X-29831561Y-122358904D01*
X-29736323Y-122406523D01*
X-29545847Y-122454142D01*
X-29402990Y-122454142D01*
X-29212514Y-122406523D01*
X-29117276Y-122358904D01*
X-29022038Y-122263666D01*
X-28974419Y-122120809D01*
X-28974419Y-121882714D01*
X-29879180Y-122835095D02*
X-29926800Y-122882714D01*
X-29974419Y-122977952D01*
X-29974419Y-123216047D01*
X-29926800Y-123311285D01*
X-29879180Y-123358904D01*
X-29783942Y-123406523D01*
X-29688704Y-123406523D01*
X-29545847Y-123358904D01*
X-28974419Y-122787476D01*
X-28974419Y-123406523D01*
X-29545847Y-123977952D02*
X-29593466Y-123882714D01*
X-29641085Y-123835095D01*
X-29736323Y-123787476D01*
X-29783942Y-123787476D01*
X-29879180Y-123835095D01*
X-29926800Y-123882714D01*
X-29974419Y-123977952D01*
X-29974419Y-124168428D01*
X-29926800Y-124263666D01*
X-29879180Y-124311285D01*
X-29783942Y-124358904D01*
X-29736323Y-124358904D01*
X-29641085Y-124311285D01*
X-29593466Y-124263666D01*
X-29545847Y-124168428D01*
X-29545847Y-123977952D01*
X-29498228Y-123882714D01*
X-29450609Y-123835095D01*
X-29355371Y-123787476D01*
X-29164895Y-123787476D01*
X-29069657Y-123835095D01*
X-29022038Y-123882714D01*
X-28974419Y-123977952D01*
X-28974419Y-124168428D01*
X-29022038Y-124263666D01*
X-29069657Y-124311285D01*
X-29164895Y-124358904D01*
X-29355371Y-124358904D01*
X-29450609Y-124311285D01*
X-29498228Y-124263666D01*
X-29545847Y-124168428D01*
X-31450919Y-102830714D02*
X-32450919Y-102830714D01*
X-32450919Y-103068809D01*
X-32403300Y-103211666D01*
X-32308061Y-103306904D01*
X-32212823Y-103354523D01*
X-32022347Y-103402142D01*
X-31879490Y-103402142D01*
X-31689014Y-103354523D01*
X-31593776Y-103306904D01*
X-31498538Y-103211666D01*
X-31450919Y-103068809D01*
X-31450919Y-102830714D01*
X-32355680Y-103783095D02*
X-32403300Y-103830714D01*
X-32450919Y-103925952D01*
X-32450919Y-104164047D01*
X-32403300Y-104259285D01*
X-32355680Y-104306904D01*
X-32260442Y-104354523D01*
X-32165204Y-104354523D01*
X-32022347Y-104306904D01*
X-31450919Y-103735476D01*
X-31450919Y-104354523D01*
X-32450919Y-104687857D02*
X-32450919Y-105354523D01*
X-31450919Y-104925952D01*
X-40975919Y-83780714D02*
X-41975919Y-83780714D01*
X-41975919Y-84018809D01*
X-41928300Y-84161666D01*
X-41833061Y-84256904D01*
X-41737823Y-84304523D01*
X-41547347Y-84352142D01*
X-41404490Y-84352142D01*
X-41214014Y-84304523D01*
X-41118776Y-84256904D01*
X-41023538Y-84161666D01*
X-40975919Y-84018809D01*
X-40975919Y-83780714D01*
X-41880680Y-84733095D02*
X-41928300Y-84780714D01*
X-41975919Y-84875952D01*
X-41975919Y-85114047D01*
X-41928300Y-85209285D01*
X-41880680Y-85256904D01*
X-41785442Y-85304523D01*
X-41690204Y-85304523D01*
X-41547347Y-85256904D01*
X-40975919Y-84685476D01*
X-40975919Y-85304523D01*
X-41975919Y-86161666D02*
X-41975919Y-85971190D01*
X-41928300Y-85875952D01*
X-41880680Y-85828333D01*
X-41737823Y-85733095D01*
X-41547347Y-85685476D01*
X-41166395Y-85685476D01*
X-41071157Y-85733095D01*
X-41023538Y-85780714D01*
X-40975919Y-85875952D01*
X-40975919Y-86066428D01*
X-41023538Y-86161666D01*
X-41071157Y-86209285D01*
X-41166395Y-86256904D01*
X-41404490Y-86256904D01*
X-41499728Y-86209285D01*
X-41547347Y-86161666D01*
X-41594966Y-86066428D01*
X-41594966Y-85875952D01*
X-41547347Y-85780714D01*
X-41499728Y-85733095D01*
X-41404490Y-85685476D01*
X-45674919Y-64730714D02*
X-46674919Y-64730714D01*
X-46674919Y-64968809D01*
X-46627300Y-65111666D01*
X-46532061Y-65206904D01*
X-46436823Y-65254523D01*
X-46246347Y-65302142D01*
X-46103490Y-65302142D01*
X-45913014Y-65254523D01*
X-45817776Y-65206904D01*
X-45722538Y-65111666D01*
X-45674919Y-64968809D01*
X-45674919Y-64730714D01*
X-46579680Y-65683095D02*
X-46627300Y-65730714D01*
X-46674919Y-65825952D01*
X-46674919Y-66064047D01*
X-46627300Y-66159285D01*
X-46579680Y-66206904D01*
X-46484442Y-66254523D01*
X-46389204Y-66254523D01*
X-46246347Y-66206904D01*
X-45674919Y-65635476D01*
X-45674919Y-66254523D01*
X-46674919Y-67159285D02*
X-46674919Y-66683095D01*
X-46198728Y-66635476D01*
X-46246347Y-66683095D01*
X-46293966Y-66778333D01*
X-46293966Y-67016428D01*
X-46246347Y-67111666D01*
X-46198728Y-67159285D01*
X-46103490Y-67206904D01*
X-45865395Y-67206904D01*
X-45770157Y-67159285D01*
X-45722538Y-67111666D01*
X-45674919Y-67016428D01*
X-45674919Y-66778333D01*
X-45722538Y-66683095D01*
X-45770157Y-66635476D01*
X-55199919Y-45680714D02*
X-56199919Y-45680714D01*
X-56199919Y-45918809D01*
X-56152300Y-46061666D01*
X-56057061Y-46156904D01*
X-55961823Y-46204523D01*
X-55771347Y-46252142D01*
X-55628490Y-46252142D01*
X-55438014Y-46204523D01*
X-55342776Y-46156904D01*
X-55247538Y-46061666D01*
X-55199919Y-45918809D01*
X-55199919Y-45680714D01*
X-56104680Y-46633095D02*
X-56152300Y-46680714D01*
X-56199919Y-46775952D01*
X-56199919Y-47014047D01*
X-56152300Y-47109285D01*
X-56104680Y-47156904D01*
X-56009442Y-47204523D01*
X-55914204Y-47204523D01*
X-55771347Y-47156904D01*
X-55199919Y-46585476D01*
X-55199919Y-47204523D01*
X-55866585Y-48061666D02*
X-55199919Y-48061666D01*
X-56247538Y-47823571D02*
X-55533252Y-47585476D01*
X-55533252Y-48204523D01*
X-50500919Y-102830714D02*
X-51500919Y-102830714D01*
X-51500919Y-103068809D01*
X-51453300Y-103211666D01*
X-51358061Y-103306904D01*
X-51262823Y-103354523D01*
X-51072347Y-103402142D01*
X-50929490Y-103402142D01*
X-50739014Y-103354523D01*
X-50643776Y-103306904D01*
X-50548538Y-103211666D01*
X-50500919Y-103068809D01*
X-50500919Y-102830714D01*
X-51405680Y-103783095D02*
X-51453300Y-103830714D01*
X-51500919Y-103925952D01*
X-51500919Y-104164047D01*
X-51453300Y-104259285D01*
X-51405680Y-104306904D01*
X-51310442Y-104354523D01*
X-51215204Y-104354523D01*
X-51072347Y-104306904D01*
X-50500919Y-103735476D01*
X-50500919Y-104354523D01*
X-51500919Y-104687857D02*
X-51500919Y-105306904D01*
X-51119966Y-104973571D01*
X-51119966Y-105116428D01*
X-51072347Y-105211666D01*
X-51024728Y-105259285D01*
X-50929490Y-105306904D01*
X-50691395Y-105306904D01*
X-50596157Y-105259285D01*
X-50548538Y-105211666D01*
X-50500919Y-105116428D01*
X-50500919Y-104830714D01*
X-50548538Y-104735476D01*
X-50596157Y-104687857D01*
X-60025919Y-83780714D02*
X-61025919Y-83780714D01*
X-61025919Y-84018809D01*
X-60978300Y-84161666D01*
X-60883061Y-84256904D01*
X-60787823Y-84304523D01*
X-60597347Y-84352142D01*
X-60454490Y-84352142D01*
X-60264014Y-84304523D01*
X-60168776Y-84256904D01*
X-60073538Y-84161666D01*
X-60025919Y-84018809D01*
X-60025919Y-83780714D01*
X-60930680Y-84733095D02*
X-60978300Y-84780714D01*
X-61025919Y-84875952D01*
X-61025919Y-85114047D01*
X-60978300Y-85209285D01*
X-60930680Y-85256904D01*
X-60835442Y-85304523D01*
X-60740204Y-85304523D01*
X-60597347Y-85256904D01*
X-60025919Y-84685476D01*
X-60025919Y-85304523D01*
X-60930680Y-85685476D02*
X-60978300Y-85733095D01*
X-61025919Y-85828333D01*
X-61025919Y-86066428D01*
X-60978300Y-86161666D01*
X-60930680Y-86209285D01*
X-60835442Y-86256904D01*
X-60740204Y-86256904D01*
X-60597347Y-86209285D01*
X-60025919Y-85637857D01*
X-60025919Y-86256904D01*
X-64724919Y-64730714D02*
X-65724919Y-64730714D01*
X-65724919Y-64968809D01*
X-65677300Y-65111666D01*
X-65582061Y-65206904D01*
X-65486823Y-65254523D01*
X-65296347Y-65302142D01*
X-65153490Y-65302142D01*
X-64963014Y-65254523D01*
X-64867776Y-65206904D01*
X-64772538Y-65111666D01*
X-64724919Y-64968809D01*
X-64724919Y-64730714D01*
X-65629680Y-65683095D02*
X-65677300Y-65730714D01*
X-65724919Y-65825952D01*
X-65724919Y-66064047D01*
X-65677300Y-66159285D01*
X-65629680Y-66206904D01*
X-65534442Y-66254523D01*
X-65439204Y-66254523D01*
X-65296347Y-66206904D01*
X-64724919Y-65635476D01*
X-64724919Y-66254523D01*
X-64724919Y-67206904D02*
X-64724919Y-66635476D01*
X-64724919Y-66921190D02*
X-65724919Y-66921190D01*
X-65582061Y-66825952D01*
X-65486823Y-66730714D01*
X-65439204Y-66635476D01*
X-74249919Y-45680714D02*
X-75249919Y-45680714D01*
X-75249919Y-45918809D01*
X-75202300Y-46061666D01*
X-75107061Y-46156904D01*
X-75011823Y-46204523D01*
X-74821347Y-46252142D01*
X-74678490Y-46252142D01*
X-74488014Y-46204523D01*
X-74392776Y-46156904D01*
X-74297538Y-46061666D01*
X-74249919Y-45918809D01*
X-74249919Y-45680714D01*
X-75154680Y-46633095D02*
X-75202300Y-46680714D01*
X-75249919Y-46775952D01*
X-75249919Y-47014047D01*
X-75202300Y-47109285D01*
X-75154680Y-47156904D01*
X-75059442Y-47204523D01*
X-74964204Y-47204523D01*
X-74821347Y-47156904D01*
X-74249919Y-46585476D01*
X-74249919Y-47204523D01*
X-75249919Y-47823571D02*
X-75249919Y-47918809D01*
X-75202300Y-48014047D01*
X-75154680Y-48061666D01*
X-75059442Y-48109285D01*
X-74868966Y-48156904D01*
X-74630871Y-48156904D01*
X-74440395Y-48109285D01*
X-74345157Y-48061666D01*
X-74297538Y-48014047D01*
X-74249919Y-47918809D01*
X-74249919Y-47823571D01*
X-74297538Y-47728333D01*
X-74345157Y-47680714D01*
X-74440395Y-47633095D01*
X-74630871Y-47585476D01*
X-74868966Y-47585476D01*
X-75059442Y-47633095D01*
X-75154680Y-47680714D01*
X-75202300Y-47728333D01*
X-75249919Y-47823571D01*
X-69550919Y-102831714D02*
X-70550919Y-102831714D01*
X-70550919Y-103069809D01*
X-70503300Y-103212666D01*
X-70408061Y-103307904D01*
X-70312823Y-103355523D01*
X-70122347Y-103403142D01*
X-69979490Y-103403142D01*
X-69789014Y-103355523D01*
X-69693776Y-103307904D01*
X-69598538Y-103212666D01*
X-69550919Y-103069809D01*
X-69550919Y-102831714D01*
X-69550919Y-104355523D02*
X-69550919Y-103784095D01*
X-69550919Y-104069809D02*
X-70550919Y-104069809D01*
X-70408061Y-103974571D01*
X-70312823Y-103879333D01*
X-70265204Y-103784095D01*
X-69550919Y-104831714D02*
X-69550919Y-105022190D01*
X-69598538Y-105117428D01*
X-69646157Y-105165047D01*
X-69789014Y-105260285D01*
X-69979490Y-105307904D01*
X-70360442Y-105307904D01*
X-70455680Y-105260285D01*
X-70503300Y-105212666D01*
X-70550919Y-105117428D01*
X-70550919Y-104926952D01*
X-70503300Y-104831714D01*
X-70455680Y-104784095D01*
X-70360442Y-104736476D01*
X-70122347Y-104736476D01*
X-70027109Y-104784095D01*
X-69979490Y-104831714D01*
X-69931871Y-104926952D01*
X-69931871Y-105117428D01*
X-69979490Y-105212666D01*
X-70027109Y-105260285D01*
X-70122347Y-105307904D01*
X-79075919Y-83780714D02*
X-80075919Y-83780714D01*
X-80075919Y-84018809D01*
X-80028300Y-84161666D01*
X-79933061Y-84256904D01*
X-79837823Y-84304523D01*
X-79647347Y-84352142D01*
X-79504490Y-84352142D01*
X-79314014Y-84304523D01*
X-79218776Y-84256904D01*
X-79123538Y-84161666D01*
X-79075919Y-84018809D01*
X-79075919Y-83780714D01*
X-79075919Y-85304523D02*
X-79075919Y-84733095D01*
X-79075919Y-85018809D02*
X-80075919Y-85018809D01*
X-79933061Y-84923571D01*
X-79837823Y-84828333D01*
X-79790204Y-84733095D01*
X-79647347Y-85875952D02*
X-79694966Y-85780714D01*
X-79742585Y-85733095D01*
X-79837823Y-85685476D01*
X-79885442Y-85685476D01*
X-79980680Y-85733095D01*
X-80028300Y-85780714D01*
X-80075919Y-85875952D01*
X-80075919Y-86066428D01*
X-80028300Y-86161666D01*
X-79980680Y-86209285D01*
X-79885442Y-86256904D01*
X-79837823Y-86256904D01*
X-79742585Y-86209285D01*
X-79694966Y-86161666D01*
X-79647347Y-86066428D01*
X-79647347Y-85875952D01*
X-79599728Y-85780714D01*
X-79552109Y-85733095D01*
X-79456871Y-85685476D01*
X-79266395Y-85685476D01*
X-79171157Y-85733095D01*
X-79123538Y-85780714D01*
X-79075919Y-85875952D01*
X-79075919Y-86066428D01*
X-79123538Y-86161666D01*
X-79171157Y-86209285D01*
X-79266395Y-86256904D01*
X-79456871Y-86256904D01*
X-79552109Y-86209285D01*
X-79599728Y-86161666D01*
X-79647347Y-86066428D01*
X-83774919Y-64730714D02*
X-84774919Y-64730714D01*
X-84774919Y-64968809D01*
X-84727300Y-65111666D01*
X-84632061Y-65206904D01*
X-84536823Y-65254523D01*
X-84346347Y-65302142D01*
X-84203490Y-65302142D01*
X-84013014Y-65254523D01*
X-83917776Y-65206904D01*
X-83822538Y-65111666D01*
X-83774919Y-64968809D01*
X-83774919Y-64730714D01*
X-83774919Y-66254523D02*
X-83774919Y-65683095D01*
X-83774919Y-65968809D02*
X-84774919Y-65968809D01*
X-84632061Y-65873571D01*
X-84536823Y-65778333D01*
X-84489204Y-65683095D01*
X-84774919Y-66587857D02*
X-84774919Y-67254523D01*
X-83774919Y-66825952D01*
X-93299919Y-45680714D02*
X-94299919Y-45680714D01*
X-94299919Y-45918809D01*
X-94252300Y-46061666D01*
X-94157061Y-46156904D01*
X-94061823Y-46204523D01*
X-93871347Y-46252142D01*
X-93728490Y-46252142D01*
X-93538014Y-46204523D01*
X-93442776Y-46156904D01*
X-93347538Y-46061666D01*
X-93299919Y-45918809D01*
X-93299919Y-45680714D01*
X-93299919Y-47204523D02*
X-93299919Y-46633095D01*
X-93299919Y-46918809D02*
X-94299919Y-46918809D01*
X-94157061Y-46823571D01*
X-94061823Y-46728333D01*
X-94014204Y-46633095D01*
X-94299919Y-48061666D02*
X-94299919Y-47871190D01*
X-94252300Y-47775952D01*
X-94204680Y-47728333D01*
X-94061823Y-47633095D01*
X-93871347Y-47585476D01*
X-93490395Y-47585476D01*
X-93395157Y-47633095D01*
X-93347538Y-47680714D01*
X-93299919Y-47775952D01*
X-93299919Y-47966428D01*
X-93347538Y-48061666D01*
X-93395157Y-48109285D01*
X-93490395Y-48156904D01*
X-93728490Y-48156904D01*
X-93823728Y-48109285D01*
X-93871347Y-48061666D01*
X-93918966Y-47966428D01*
X-93918966Y-47775952D01*
X-93871347Y-47680714D01*
X-93823728Y-47633095D01*
X-93728490Y-47585476D01*
X-100475419Y-121880714D02*
X-101475419Y-121880714D01*
X-101475419Y-122118809D01*
X-101427800Y-122261666D01*
X-101332561Y-122356904D01*
X-101237323Y-122404523D01*
X-101046847Y-122452142D01*
X-100903990Y-122452142D01*
X-100713514Y-122404523D01*
X-100618276Y-122356904D01*
X-100523038Y-122261666D01*
X-100475419Y-122118809D01*
X-100475419Y-121880714D01*
X-100475419Y-123404523D02*
X-100475419Y-122833095D01*
X-100475419Y-123118809D02*
X-101475419Y-123118809D01*
X-101332561Y-123023571D01*
X-101237323Y-122928333D01*
X-101189704Y-122833095D01*
X-101475419Y-124309285D02*
X-101475419Y-123833095D01*
X-100999228Y-123785476D01*
X-101046847Y-123833095D01*
X-101094466Y-123928333D01*
X-101094466Y-124166428D01*
X-101046847Y-124261666D01*
X-100999228Y-124309285D01*
X-100903990Y-124356904D01*
X-100665895Y-124356904D01*
X-100570657Y-124309285D01*
X-100523038Y-124261666D01*
X-100475419Y-124166428D01*
X-100475419Y-123928333D01*
X-100523038Y-123833095D01*
X-100570657Y-123785476D01*
X-88600919Y-102830714D02*
X-89600919Y-102830714D01*
X-89600919Y-103068809D01*
X-89553300Y-103211666D01*
X-89458061Y-103306904D01*
X-89362823Y-103354523D01*
X-89172347Y-103402142D01*
X-89029490Y-103402142D01*
X-88839014Y-103354523D01*
X-88743776Y-103306904D01*
X-88648538Y-103211666D01*
X-88600919Y-103068809D01*
X-88600919Y-102830714D01*
X-88600919Y-104354523D02*
X-88600919Y-103783095D01*
X-88600919Y-104068809D02*
X-89600919Y-104068809D01*
X-89458061Y-103973571D01*
X-89362823Y-103878333D01*
X-89315204Y-103783095D01*
X-89267585Y-105211666D02*
X-88600919Y-105211666D01*
X-89648538Y-104973571D02*
X-88934252Y-104735476D01*
X-88934252Y-105354523D01*
X-98125919Y-83780714D02*
X-99125919Y-83780714D01*
X-99125919Y-84018809D01*
X-99078300Y-84161666D01*
X-98983061Y-84256904D01*
X-98887823Y-84304523D01*
X-98697347Y-84352142D01*
X-98554490Y-84352142D01*
X-98364014Y-84304523D01*
X-98268776Y-84256904D01*
X-98173538Y-84161666D01*
X-98125919Y-84018809D01*
X-98125919Y-83780714D01*
X-98125919Y-85304523D02*
X-98125919Y-84733095D01*
X-98125919Y-85018809D02*
X-99125919Y-85018809D01*
X-98983061Y-84923571D01*
X-98887823Y-84828333D01*
X-98840204Y-84733095D01*
X-99125919Y-85637857D02*
X-99125919Y-86256904D01*
X-98744966Y-85923571D01*
X-98744966Y-86066428D01*
X-98697347Y-86161666D01*
X-98649728Y-86209285D01*
X-98554490Y-86256904D01*
X-98316395Y-86256904D01*
X-98221157Y-86209285D01*
X-98173538Y-86161666D01*
X-98125919Y-86066428D01*
X-98125919Y-85780714D01*
X-98173538Y-85685476D01*
X-98221157Y-85637857D01*
X-102824919Y-64730714D02*
X-103824919Y-64730714D01*
X-103824919Y-64968809D01*
X-103777300Y-65111666D01*
X-103682061Y-65206904D01*
X-103586823Y-65254523D01*
X-103396347Y-65302142D01*
X-103253490Y-65302142D01*
X-103063014Y-65254523D01*
X-102967776Y-65206904D01*
X-102872538Y-65111666D01*
X-102824919Y-64968809D01*
X-102824919Y-64730714D01*
X-102824919Y-66254523D02*
X-102824919Y-65683095D01*
X-102824919Y-65968809D02*
X-103824919Y-65968809D01*
X-103682061Y-65873571D01*
X-103586823Y-65778333D01*
X-103539204Y-65683095D01*
X-103729680Y-66635476D02*
X-103777300Y-66683095D01*
X-103824919Y-66778333D01*
X-103824919Y-67016428D01*
X-103777300Y-67111666D01*
X-103729680Y-67159285D01*
X-103634442Y-67206904D01*
X-103539204Y-67206904D01*
X-103396347Y-67159285D01*
X-102824919Y-66587857D01*
X-102824919Y-67206904D01*
X-112349919Y-45680714D02*
X-113349919Y-45680714D01*
X-113349919Y-45918809D01*
X-113302300Y-46061666D01*
X-113207061Y-46156904D01*
X-113111823Y-46204523D01*
X-112921347Y-46252142D01*
X-112778490Y-46252142D01*
X-112588014Y-46204523D01*
X-112492776Y-46156904D01*
X-112397538Y-46061666D01*
X-112349919Y-45918809D01*
X-112349919Y-45680714D01*
X-112349919Y-47204523D02*
X-112349919Y-46633095D01*
X-112349919Y-46918809D02*
X-113349919Y-46918809D01*
X-113207061Y-46823571D01*
X-113111823Y-46728333D01*
X-113064204Y-46633095D01*
X-112349919Y-48156904D02*
X-112349919Y-47585476D01*
X-112349919Y-47871190D02*
X-113349919Y-47871190D01*
X-113207061Y-47775952D01*
X-113111823Y-47680714D01*
X-113064204Y-47585476D01*
X-124287919Y-121880714D02*
X-125287919Y-121880714D01*
X-125287919Y-122118809D01*
X-125240300Y-122261666D01*
X-125145061Y-122356904D01*
X-125049823Y-122404523D01*
X-124859347Y-122452142D01*
X-124716490Y-122452142D01*
X-124526014Y-122404523D01*
X-124430776Y-122356904D01*
X-124335538Y-122261666D01*
X-124287919Y-122118809D01*
X-124287919Y-121880714D01*
X-124287919Y-123404523D02*
X-124287919Y-122833095D01*
X-124287919Y-123118809D02*
X-125287919Y-123118809D01*
X-125145061Y-123023571D01*
X-125049823Y-122928333D01*
X-125002204Y-122833095D01*
X-125287919Y-124023571D02*
X-125287919Y-124118809D01*
X-125240300Y-124214047D01*
X-125192680Y-124261666D01*
X-125097442Y-124309285D01*
X-124906966Y-124356904D01*
X-124668871Y-124356904D01*
X-124478395Y-124309285D01*
X-124383157Y-124261666D01*
X-124335538Y-124214047D01*
X-124287919Y-124118809D01*
X-124287919Y-124023571D01*
X-124335538Y-123928333D01*
X-124383157Y-123880714D01*
X-124478395Y-123833095D01*
X-124668871Y-123785476D01*
X-124906966Y-123785476D01*
X-125097442Y-123833095D01*
X-125192680Y-123880714D01*
X-125240300Y-123928333D01*
X-125287919Y-124023571D01*
X-107650919Y-103306904D02*
X-108650919Y-103306904D01*
X-108650919Y-103545000D01*
X-108603300Y-103687857D01*
X-108508061Y-103783095D01*
X-108412823Y-103830714D01*
X-108222347Y-103878333D01*
X-108079490Y-103878333D01*
X-107889014Y-103830714D01*
X-107793776Y-103783095D01*
X-107698538Y-103687857D01*
X-107650919Y-103545000D01*
X-107650919Y-103306904D01*
X-107650919Y-104354523D02*
X-107650919Y-104545000D01*
X-107698538Y-104640238D01*
X-107746157Y-104687857D01*
X-107889014Y-104783095D01*
X-108079490Y-104830714D01*
X-108460442Y-104830714D01*
X-108555680Y-104783095D01*
X-108603300Y-104735476D01*
X-108650919Y-104640238D01*
X-108650919Y-104449761D01*
X-108603300Y-104354523D01*
X-108555680Y-104306904D01*
X-108460442Y-104259285D01*
X-108222347Y-104259285D01*
X-108127109Y-104306904D01*
X-108079490Y-104354523D01*
X-108031871Y-104449761D01*
X-108031871Y-104640238D01*
X-108079490Y-104735476D01*
X-108127109Y-104783095D01*
X-108222347Y-104830714D01*
X-117175919Y-84256904D02*
X-118175919Y-84256904D01*
X-118175919Y-84495000D01*
X-118128300Y-84637857D01*
X-118033061Y-84733095D01*
X-117937823Y-84780714D01*
X-117747347Y-84828333D01*
X-117604490Y-84828333D01*
X-117414014Y-84780714D01*
X-117318776Y-84733095D01*
X-117223538Y-84637857D01*
X-117175919Y-84495000D01*
X-117175919Y-84256904D01*
X-117747347Y-85399761D02*
X-117794966Y-85304523D01*
X-117842585Y-85256904D01*
X-117937823Y-85209285D01*
X-117985442Y-85209285D01*
X-118080680Y-85256904D01*
X-118128300Y-85304523D01*
X-118175919Y-85399761D01*
X-118175919Y-85590238D01*
X-118128300Y-85685476D01*
X-118080680Y-85733095D01*
X-117985442Y-85780714D01*
X-117937823Y-85780714D01*
X-117842585Y-85733095D01*
X-117794966Y-85685476D01*
X-117747347Y-85590238D01*
X-117747347Y-85399761D01*
X-117699728Y-85304523D01*
X-117652109Y-85256904D01*
X-117556871Y-85209285D01*
X-117366395Y-85209285D01*
X-117271157Y-85256904D01*
X-117223538Y-85304523D01*
X-117175919Y-85399761D01*
X-117175919Y-85590238D01*
X-117223538Y-85685476D01*
X-117271157Y-85733095D01*
X-117366395Y-85780714D01*
X-117556871Y-85780714D01*
X-117652109Y-85733095D01*
X-117699728Y-85685476D01*
X-117747347Y-85590238D01*
X-121874919Y-65206904D02*
X-122874919Y-65206904D01*
X-122874919Y-65445000D01*
X-122827300Y-65587857D01*
X-122732061Y-65683095D01*
X-122636823Y-65730714D01*
X-122446347Y-65778333D01*
X-122303490Y-65778333D01*
X-122113014Y-65730714D01*
X-122017776Y-65683095D01*
X-121922538Y-65587857D01*
X-121874919Y-65445000D01*
X-121874919Y-65206904D01*
X-122874919Y-66111666D02*
X-122874919Y-66778333D01*
X-121874919Y-66349761D01*
X-131399919Y-46156904D02*
X-132399919Y-46156904D01*
X-132399919Y-46395000D01*
X-132352300Y-46537857D01*
X-132257061Y-46633095D01*
X-132161823Y-46680714D01*
X-131971347Y-46728333D01*
X-131828490Y-46728333D01*
X-131638014Y-46680714D01*
X-131542776Y-46633095D01*
X-131447538Y-46537857D01*
X-131399919Y-46395000D01*
X-131399919Y-46156904D01*
X-132399919Y-47585476D02*
X-132399919Y-47395000D01*
X-132352300Y-47299761D01*
X-132304680Y-47252142D01*
X-132161823Y-47156904D01*
X-131971347Y-47109285D01*
X-131590395Y-47109285D01*
X-131495157Y-47156904D01*
X-131447538Y-47204523D01*
X-131399919Y-47299761D01*
X-131399919Y-47490238D01*
X-131447538Y-47585476D01*
X-131495157Y-47633095D01*
X-131590395Y-47680714D01*
X-131828490Y-47680714D01*
X-131923728Y-47633095D01*
X-131971347Y-47585476D01*
X-132018966Y-47490238D01*
X-132018966Y-47299761D01*
X-131971347Y-47204523D01*
X-131923728Y-47156904D01*
X-131828490Y-47109285D01*
X-148163919Y-122356904D02*
X-149163919Y-122356904D01*
X-149163919Y-122595000D01*
X-149116300Y-122737857D01*
X-149021061Y-122833095D01*
X-148925823Y-122880714D01*
X-148735347Y-122928333D01*
X-148592490Y-122928333D01*
X-148402014Y-122880714D01*
X-148306776Y-122833095D01*
X-148211538Y-122737857D01*
X-148163919Y-122595000D01*
X-148163919Y-122356904D01*
X-149163919Y-123833095D02*
X-149163919Y-123356904D01*
X-148687728Y-123309285D01*
X-148735347Y-123356904D01*
X-148782966Y-123452142D01*
X-148782966Y-123690238D01*
X-148735347Y-123785476D01*
X-148687728Y-123833095D01*
X-148592490Y-123880714D01*
X-148354395Y-123880714D01*
X-148259157Y-123833095D01*
X-148211538Y-123785476D01*
X-148163919Y-123690238D01*
X-148163919Y-123452142D01*
X-148211538Y-123356904D01*
X-148259157Y-123309285D01*
X-138638919Y-103306904D02*
X-139638919Y-103306904D01*
X-139638919Y-103545000D01*
X-139591300Y-103687857D01*
X-139496061Y-103783095D01*
X-139400823Y-103830714D01*
X-139210347Y-103878333D01*
X-139067490Y-103878333D01*
X-138877014Y-103830714D01*
X-138781776Y-103783095D01*
X-138686538Y-103687857D01*
X-138638919Y-103545000D01*
X-138638919Y-103306904D01*
X-139305585Y-104735476D02*
X-138638919Y-104735476D01*
X-139686538Y-104497380D02*
X-138972252Y-104259285D01*
X-138972252Y-104878333D01*
X-143337919Y-84256904D02*
X-144337919Y-84256904D01*
X-144337919Y-84495000D01*
X-144290300Y-84637857D01*
X-144195061Y-84733095D01*
X-144099823Y-84780714D01*
X-143909347Y-84828333D01*
X-143766490Y-84828333D01*
X-143576014Y-84780714D01*
X-143480776Y-84733095D01*
X-143385538Y-84637857D01*
X-143337919Y-84495000D01*
X-143337919Y-84256904D01*
X-144337919Y-85161666D02*
X-144337919Y-85780714D01*
X-143956966Y-85447380D01*
X-143956966Y-85590238D01*
X-143909347Y-85685476D01*
X-143861728Y-85733095D01*
X-143766490Y-85780714D01*
X-143528395Y-85780714D01*
X-143433157Y-85733095D01*
X-143385538Y-85685476D01*
X-143337919Y-85590238D01*
X-143337919Y-85304523D01*
X-143385538Y-85209285D01*
X-143433157Y-85161666D01*
X-145687419Y-65206904D02*
X-146687419Y-65206904D01*
X-146687419Y-65445000D01*
X-146639800Y-65587857D01*
X-146544561Y-65683095D01*
X-146449323Y-65730714D01*
X-146258847Y-65778333D01*
X-146115990Y-65778333D01*
X-145925514Y-65730714D01*
X-145830276Y-65683095D01*
X-145735038Y-65587857D01*
X-145687419Y-65445000D01*
X-145687419Y-65206904D01*
X-146592180Y-66159285D02*
X-146639800Y-66206904D01*
X-146687419Y-66302142D01*
X-146687419Y-66540238D01*
X-146639800Y-66635476D01*
X-146592180Y-66683095D01*
X-146496942Y-66730714D01*
X-146401704Y-66730714D01*
X-146258847Y-66683095D01*
X-145687419Y-66111666D01*
X-145687419Y-66730714D01*
X-150449919Y-46156904D02*
X-151449919Y-46156904D01*
X-151449919Y-46395000D01*
X-151402300Y-46537857D01*
X-151307061Y-46633095D01*
X-151211823Y-46680714D01*
X-151021347Y-46728333D01*
X-150878490Y-46728333D01*
X-150688014Y-46680714D01*
X-150592776Y-46633095D01*
X-150497538Y-46537857D01*
X-150449919Y-46395000D01*
X-150449919Y-46156904D01*
X-150449919Y-47680714D02*
X-150449919Y-47109285D01*
X-150449919Y-47395000D02*
X-151449919Y-47395000D01*
X-151307061Y-47299761D01*
X-151211823Y-47204523D01*
X-151164204Y-47109285D01*
X-13639593Y-108496582D02*
X-13591974Y-108544201D01*
X-13449117Y-108591820D01*
X-13353879Y-108591820D01*
X-13211021Y-108544201D01*
X-13115783Y-108448963D01*
X-13068164Y-108353725D01*
X-13020545Y-108163249D01*
X-13020545Y-108020392D01*
X-13068164Y-107829916D01*
X-13115783Y-107734678D01*
X-13211021Y-107639440D01*
X-13353879Y-107591820D01*
X-13449117Y-107591820D01*
X-13591974Y-107639440D01*
X-13639593Y-107687059D01*
X-14211021Y-108020392D02*
X-14115783Y-107972773D01*
X-14068164Y-107925154D01*
X-14020545Y-107829916D01*
X-14020545Y-107782297D01*
X-14068164Y-107687059D01*
X-14115783Y-107639440D01*
X-14211021Y-107591820D01*
X-14401498Y-107591820D01*
X-14496736Y-107639440D01*
X-14544355Y-107687059D01*
X-14591974Y-107782297D01*
X-14591974Y-107829916D01*
X-14544355Y-107925154D01*
X-14496736Y-107972773D01*
X-14401498Y-108020392D01*
X-14211021Y-108020392D01*
X-14115783Y-108068011D01*
X-14068164Y-108115630D01*
X-14020545Y-108210868D01*
X-14020545Y-108401344D01*
X-14068164Y-108496582D01*
X-14115783Y-108544201D01*
X-14211021Y-108591820D01*
X-14401498Y-108591820D01*
X-14496736Y-108544201D01*
X-14544355Y-108496582D01*
X-14591974Y-108401344D01*
X-14591974Y-108210868D01*
X-14544355Y-108115630D01*
X-14496736Y-108068011D01*
X-14401498Y-108020392D01*
X2761366Y-127259142D02*
X2808985Y-127306761D01*
X2951842Y-127354380D01*
X3047080Y-127354380D01*
X3189938Y-127306761D01*
X3285176Y-127211523D01*
X3332795Y-127116285D01*
X3380414Y-126925809D01*
X3380414Y-126782952D01*
X3332795Y-126592476D01*
X3285176Y-126497238D01*
X3189938Y-126402000D01*
X3047080Y-126354380D01*
X2951842Y-126354380D01*
X2808985Y-126402000D01*
X2761366Y-126449619D01*
X2428033Y-126354380D02*
X1761366Y-126354380D01*
X2189938Y-127354380D01*
X4150842Y-113307833D02*
X4198461Y-113260214D01*
X4246080Y-113117357D01*
X4246080Y-113022119D01*
X4198461Y-112879261D01*
X4103223Y-112784023D01*
X4007985Y-112736404D01*
X3817509Y-112688785D01*
X3674652Y-112688785D01*
X3484176Y-112736404D01*
X3388938Y-112784023D01*
X3293700Y-112879261D01*
X3246080Y-113022119D01*
X3246080Y-113117357D01*
X3293700Y-113260214D01*
X3341319Y-113307833D01*
X3246080Y-114164976D02*
X3246080Y-113974500D01*
X3293700Y-113879261D01*
X3341319Y-113831642D01*
X3484176Y-113736404D01*
X3674652Y-113688785D01*
X4055604Y-113688785D01*
X4150842Y-113736404D01*
X4198461Y-113784023D01*
X4246080Y-113879261D01*
X4246080Y-114069738D01*
X4198461Y-114164976D01*
X4150842Y-114212595D01*
X4055604Y-114260214D01*
X3817509Y-114260214D01*
X3722271Y-114212595D01*
X3674652Y-114164976D01*
X3627033Y-114069738D01*
X3627033Y-113879261D01*
X3674652Y-113784023D01*
X3722271Y-113736404D01*
X3817509Y-113688785D01*
X-12682157Y-122324833D02*
X-12634538Y-122277214D01*
X-12586919Y-122134357D01*
X-12586919Y-122039119D01*
X-12634538Y-121896261D01*
X-12729776Y-121801023D01*
X-12825014Y-121753404D01*
X-13015490Y-121705785D01*
X-13158347Y-121705785D01*
X-13348823Y-121753404D01*
X-13444061Y-121801023D01*
X-13539300Y-121896261D01*
X-13586919Y-122039119D01*
X-13586919Y-122134357D01*
X-13539300Y-122277214D01*
X-13491680Y-122324833D01*
X-13586919Y-123229595D02*
X-13586919Y-122753404D01*
X-13110728Y-122705785D01*
X-13158347Y-122753404D01*
X-13205966Y-122848642D01*
X-13205966Y-123086738D01*
X-13158347Y-123181976D01*
X-13110728Y-123229595D01*
X-13015490Y-123277214D01*
X-12777395Y-123277214D01*
X-12682157Y-123229595D01*
X-12634538Y-123181976D01*
X-12586919Y-123086738D01*
X-12586919Y-122848642D01*
X-12634538Y-122753404D01*
X-12682157Y-122705785D01*
X1224342Y-105582333D02*
X1271961Y-105534714D01*
X1319580Y-105391857D01*
X1319580Y-105296619D01*
X1271961Y-105153761D01*
X1176723Y-105058523D01*
X1081485Y-105010904D01*
X891009Y-104963285D01*
X748152Y-104963285D01*
X557676Y-105010904D01*
X462438Y-105058523D01*
X367200Y-105153761D01*
X319580Y-105296619D01*
X319580Y-105391857D01*
X367200Y-105534714D01*
X414819Y-105582333D01*
X652914Y-106439476D02*
X1319580Y-106439476D01*
X271961Y-106201380D02*
X986247Y-105963285D01*
X986247Y-106582333D01*
X14374866Y-118529142D02*
X14422485Y-118576761D01*
X14565342Y-118624380D01*
X14660580Y-118624380D01*
X14803438Y-118576761D01*
X14898676Y-118481523D01*
X14946295Y-118386285D01*
X14993914Y-118195809D01*
X14993914Y-118052952D01*
X14946295Y-117862476D01*
X14898676Y-117767238D01*
X14803438Y-117672000D01*
X14660580Y-117624380D01*
X14565342Y-117624380D01*
X14422485Y-117672000D01*
X14374866Y-117719619D01*
X14041533Y-117624380D02*
X13422485Y-117624380D01*
X13755819Y-118005333D01*
X13612961Y-118005333D01*
X13517723Y-118052952D01*
X13470104Y-118100571D01*
X13422485Y-118195809D01*
X13422485Y-118433904D01*
X13470104Y-118529142D01*
X13517723Y-118576761D01*
X13612961Y-118624380D01*
X13898676Y-118624380D01*
X13993914Y-118576761D01*
X14041533Y-118529142D01*
X14290866Y-122085142D02*
X14338485Y-122132761D01*
X14481342Y-122180380D01*
X14576580Y-122180380D01*
X14719438Y-122132761D01*
X14814676Y-122037523D01*
X14862295Y-121942285D01*
X14909914Y-121751809D01*
X14909914Y-121608952D01*
X14862295Y-121418476D01*
X14814676Y-121323238D01*
X14719438Y-121228000D01*
X14576580Y-121180380D01*
X14481342Y-121180380D01*
X14338485Y-121228000D01*
X14290866Y-121275619D01*
X13909914Y-121275619D02*
X13862295Y-121228000D01*
X13767057Y-121180380D01*
X13528961Y-121180380D01*
X13433723Y-121228000D01*
X13386104Y-121275619D01*
X13338485Y-121370857D01*
X13338485Y-121466095D01*
X13386104Y-121608952D01*
X13957533Y-122180380D01*
X13338485Y-122180380D01*
X-1506157Y-105645833D02*
X-1458538Y-105598214D01*
X-1410919Y-105455357D01*
X-1410919Y-105360119D01*
X-1458538Y-105217261D01*
X-1553776Y-105122023D01*
X-1649014Y-105074404D01*
X-1839490Y-105026785D01*
X-1982347Y-105026785D01*
X-2172823Y-105074404D01*
X-2268061Y-105122023D01*
X-2363300Y-105217261D01*
X-2410919Y-105360119D01*
X-2410919Y-105455357D01*
X-2363300Y-105598214D01*
X-2315680Y-105645833D01*
X-1410919Y-106598214D02*
X-1410919Y-106026785D01*
X-1410919Y-106312500D02*
X-2410919Y-106312500D01*
X-2268061Y-106217261D01*
X-2172823Y-106122023D01*
X-2125204Y-106026785D01*
M02*
